<?xml version="1.0" standalone="no"?>
<!DOCTYPE svg PUBLIC "-//W3C//DTD SVG 20010904//EN"
 "http://www.w3.org/TR/2001/REC-SVG-20010904/DTD/svg10.dtd">
<svg version="1.0" xmlns="http://www.w3.org/2000/svg"
 width="700.000000pt" height="700.000000pt" viewBox="0 0 700.000000 700.000000"
 preserveAspectRatio="xMidYMid meet">
<metadata>
Created by potrace 1.14, written by Peter Selinger 2001-2017
</metadata>
<g transform="translate(0.000000,700.000000) scale(0.100000,-0.100000)"
fill="#000000" stroke="none">
<path d="M3268 6995 c-1 -1 -41 -6 -88 -9 -47 -3 -96 -8 -110 -10 -14 -2 -46
-7 -71 -10 -51 -7 -66 -10 -154 -25 -83 -15 -104 -19 -123 -25 -9 -3 -28 -7
-42 -10 -40 -6 -324 -88 -335 -96 -5 -4 -46 -20 -90 -35 l-80 -28 0 -758 c0
-418 2 -759 5 -759 4 0 33 19 65 43 220 159 532 296 801 351 115 24 113 23
189 31 39 4 79 9 90 12 24 4 320 4 355 -1 14 -2 54 -7 90 -11 36 -3 83 -10
105 -15 22 -5 56 -12 75 -15 52 -9 146 -34 225 -60 479 -157 879 -467 1158
-895 52 -80 134 -236 172 -325 44 -104 115 -333 129 -420 3 -16 10 -53 15 -81
24 -124 32 -357 18 -532 -46 -606 -374 -1196 -867 -1559 -286 -209 -568 -332
-920 -398 -125 -23 -208 -30 -375 -29 -137 0 -311 10 -325 19 -3 2 -26 6 -50
10 -166 24 -397 99 -586 190 -116 57 -335 193 -389 242 -11 10 -38 33 -60 52
-388 326 -656 797 -740 1301 -29 174 -30 254 -30 1693 0 768 -3 1397 -6 1397
-3 0 -17 -9 -30 -21 -13 -11 -46 -39 -74 -62 -71 -59 -280 -268 -357 -357
-244 -281 -459 -633 -593 -970 -20 -52 -41 -104 -46 -115 -28 -62 -121 -386
-134 -465 -3 -19 -10 -51 -15 -70 -8 -35 -24 -130 -35 -225 -4 -27 -8 -61 -11
-75 -8 -48 -18 -256 -17 -370 0 -148 11 -328 28 -450 4 -25 9 -61 11 -80 5
-33 8 -52 19 -110 7 -32 14 -68 20 -101 16 -83 73 -283 117 -409 128 -365 301
-685 536 -990 37 -47 69 -87 72 -90 3 -3 34 -39 70 -80 419 -486 1024 -869
1655 -1049 176 -50 374 -92 510 -107 28 -3 60 -7 73 -9 159 -25 586 -25 787 0
150 19 313 49 445 81 458 113 918 337 1300 633 627 486 1071 1174 1255 1947
19 78 37 157 40 175 3 19 7 45 10 59 3 14 7 48 11 75 3 28 8 59 10 70 26 135
26 721 0 875 -3 14 -7 45 -10 70 -31 237 -110 530 -218 800 -61 153 -190 414
-248 500 -9 14 -38 59 -65 100 -26 41 -71 107 -99 145 -28 39 -54 75 -58 80
-4 6 -49 60 -99 120 -214 255 -494 503 -767 680 -110 70 -312 185 -327 185 -8
0 -16 4 -19 8 -4 8 -107 56 -261 122 -168 73 -555 179 -745 205 -19 3 -46 7
-60 10 -13 2 -54 7 -90 11 -36 3 -78 8 -95 11 -34 5 -541 13 -547 8z"/>
<path d="M3370 4819 c-175 -19 -289 -53 -455 -134 -385 -187 -664 -568 -721
-985 -3 -25 -8 -54 -10 -65 -7 -33 -6 -216 1 -275 95 -812 864 -1342 1655
-1140 430 110 789 451 924 877 14 46 28 93 30 105 3 13 7 34 11 48 19 89 25
322 11 434 -16 126 -76 311 -140 431 -135 253 -347 458 -596 578 -76 36 -230
91 -285 101 -150 29 -309 38 -425 25z"/>
</g>
</svg>
