<svg width="129" height="84" viewBox="0 0 129 84" fill="none" xmlns="http://www.w3.org/2000/svg">
<path opacity="0.4" d="M87.4124 52.1884C92.7343 52.1884 97.0485 48.0415 97.0485 42.926C97.0485 37.8105 92.7343 33.6636 87.4124 33.6636C82.0906 33.6636 77.7764 37.8105 77.7764 42.926C77.7764 48.0415 82.0906 52.1884 87.4124 52.1884Z" fill="#00e3c2"/>
<path d="M87.6325 55.7422H33.8979V69.741H87.6325V55.7422Z" fill="#3F3D56"/>
<path d="M84.1907 21.0592L82.0451 22.0353L83.9441 20.6705C83.6355 20.2074 83.2887 19.7689 82.9073 19.359L73.6021 21.5822L82.0073 18.5002C81.6232 18.1745 81.2153 17.8756 80.7867 17.606L66.6078 19.8013C65.1023 21.6108 64.2817 23.8586 64.2805 26.1756H85.6237C85.6228 24.3786 85.1285 22.6137 84.1907 21.0592Z" fill="#F2F2F2"/>
<path d="M85.8902 6.05761C77.3613 2.05908 67.9945 -0.0128551 58.5053 6.00086e-05C39.1923 6.00086e-05 21.9255 8.41778 10.4568 21.6438C30.0958 17.5075 64.2889 10.3475 85.8902 6.05761Z" fill="#F2F2F2"/>
<path d="M128.059 83.7397H0V83.9811H128.059V83.7397Z" fill="#2F2E41"/>
<path d="M74.8096 26.1757L67.5448 15.8032C67.5448 15.8032 78.5467 19.4951 77.2981 26.1757H74.8096Z" fill="#3F3D56"/>
<path d="M75.0948 26.1757L82.3595 15.8032C82.3595 15.8032 71.3576 19.4951 72.6062 26.1757H75.0948Z" fill="#00e3c2"/>
<path d="M87.6953 83.981H33.8352V6.74609H87.6953V83.981ZM34.0863 83.7396H87.4442V6.98745H34.0863V83.7396Z" fill="#2F2E41"/>
<path d="M87.6325 8.57812H34.0236V8.81948H87.6325V8.57812Z" fill="#2F2E41"/>
<path d="M35.4045 8.19444C35.6819 8.19444 35.9067 7.97832 35.9067 7.71172C35.9067 7.44512 35.6819 7.229 35.4045 7.229C35.1272 7.229 34.9023 7.44512 34.9023 7.71172C34.9023 7.97832 35.1272 8.19444 35.4045 8.19444Z" fill="#00e3c2"/>
<path d="M36.7856 8.19444C37.063 8.19444 37.2878 7.97832 37.2878 7.71172C37.2878 7.44512 37.063 7.229 36.7856 7.229C36.5083 7.229 36.2834 7.44512 36.2834 7.71172C36.2834 7.97832 36.5083 8.19444 36.7856 8.19444Z" fill="#00e3c2"/>
<path d="M38.1665 8.19444C38.4438 8.19444 38.6687 7.97832 38.6687 7.71172C38.6687 7.44512 38.4438 7.229 38.1665 7.229C37.8891 7.229 37.6643 7.44512 37.6643 7.71172C37.6643 7.97832 37.8891 8.19444 38.1665 8.19444Z" fill="#00e3c2"/>
<path d="M38.1666 10.2461H35.9067V11.4529H38.1666V10.2461Z" fill="#00e3c2"/>
<path d="M46.9549 19.7798H35.9067V20.9866H46.9549V19.7798Z" fill="#00e3c2"/>
<path d="M75.2032 11.4526L86.2515 11.4526V10.2458L75.2032 10.2458V11.4526Z" fill="#F2F2F2"/>
<path d="M54.4878 21.8311H35.9067V22.5551H54.4878V21.8311Z" fill="#F2F2F2"/>
<path d="M53.4835 23.3999H35.9067V24.124H53.4835V23.3999Z" fill="#F2F2F2"/>
<path d="M48.7126 24.9688H35.9067V25.6928H48.7126V24.9688Z" fill="#F2F2F2"/>
<path d="M47.4571 46.4497H40.1753V47.1738H47.4571V46.4497Z" fill="#F2F2F2"/>
<path d="M47.0635 48.0186H40.1753V48.7426H47.0635V48.0186Z" fill="#F2F2F2"/>
<path d="M45.1938 49.5874H40.1753V50.3115H45.1938V49.5874Z" fill="#F2F2F2"/>
<path d="M64.4061 46.4497H57.1243V47.1738H64.4061V46.4497Z" fill="#F2F2F2"/>
<path d="M64.0124 48.0186H57.1243V48.7426H64.0124V48.0186Z" fill="#F2F2F2"/>
<path d="M62.1428 49.5874H57.1243V50.3115H62.1428V49.5874Z" fill="#F2F2F2"/>
<path d="M81.9828 46.4497H74.701V47.1738H81.9828V46.4497Z" fill="#F2F2F2"/>
<path d="M81.5892 48.0186H74.701V48.7426H81.5892V48.0186Z" fill="#F2F2F2"/>
<path d="M79.7196 49.5874H74.701V50.3115H79.7196V49.5874Z" fill="#F2F2F2"/>
<path d="M62.5228 73.8438H51.4746V75.0506H62.5228V73.8438Z" fill="#00e3c2"/>
<path d="M70.0557 75.8955H51.4746V76.6196H70.0557V75.8955Z" fill="#F2F2F2"/>
<path d="M69.0513 77.4644H51.4746V78.1884H69.0513V77.4644Z" fill="#F2F2F2"/>
<path d="M64.2805 79.0332H51.4746V79.7573H64.2805V79.0332Z" fill="#F2F2F2"/>
<path opacity="0.3" d="M82.9245 32.813H39.2338V33.0543H82.9245V32.813Z" fill="#00e3c2"/>
<path opacity="0.3" d="M48.4616 37.0366H39.171V45.0015H48.4616V37.0366Z" fill="#00e3c2"/>
<path d="M65.4106 37.0366H56.12V45.0015H65.4106V37.0366Z" fill="#3F3D56"/>
<path d="M82.9872 37.0366H73.6967V45.0015H82.9872V37.0366Z" fill="#3F3D56"/>
<path d="M59.5547 44.9683L59.4321 44.966C59.4348 44.8355 59.5114 41.7605 60.7707 40.9106L60.8411 41.0071C59.6326 41.8227 59.5553 44.9369 59.5547 44.9683Z" fill="#00e3c2"/>
<path d="M61.4189 40.8715C61.7573 40.8715 62.0317 40.6078 62.0317 40.2824C62.0317 39.9571 61.7573 39.6934 61.4189 39.6934C61.0804 39.6934 60.806 39.9571 60.806 40.2824C60.806 40.6078 61.0804 40.8715 61.4189 40.8715Z" fill="#00e3c2"/>
<path d="M61.2949 42.3623C60.9761 42.4586 60.6366 42.4727 60.3104 42.4032C60.5176 42.1497 60.7965 41.9592 61.1137 41.8546C61.4309 41.75 61.7728 41.7358 62.0982 41.8137C61.885 42.061 61.608 42.2502 61.2949 42.3623Z" fill="#00e3c2"/>
<path d="M77.1315 44.9683L77.0089 44.966C77.0115 44.8355 77.0881 41.7605 78.3475 40.9106L78.4179 41.0071C77.2093 41.8227 77.1321 44.9369 77.1315 44.9683Z" fill="#00e3c2"/>
<path d="M78.9955 40.8715C79.334 40.8715 79.6084 40.6078 79.6084 40.2824C79.6084 39.9571 79.334 39.6934 78.9955 39.6934C78.6571 39.6934 78.3827 39.9571 78.3827 40.2824C78.3827 40.6078 78.6571 40.8715 78.9955 40.8715Z" fill="#00e3c2"/>
<path d="M78.8717 42.3623C78.5529 42.4586 78.2134 42.4727 77.8872 42.4032C78.0943 42.1497 78.3733 41.9592 78.6905 41.8546C79.0077 41.75 79.3496 41.7358 79.675 41.8137C79.4618 42.061 79.1848 42.2502 78.8717 42.3623Z" fill="#00e3c2"/>
<path d="M46.9549 60.207H35.9067V61.4138H46.9549V60.207Z" fill="#00e3c2"/>
<path d="M54.4878 62.2588H35.9067V62.9829H54.4878V62.2588Z" fill="#F2F2F2"/>
<path d="M53.4835 63.8276H35.9067V64.5517H53.4835V63.8276Z" fill="#F2F2F2"/>
<path d="M48.7126 65.3965H35.9067V66.1205H48.7126V65.3965Z" fill="#F2F2F2"/>
<path opacity="0.4" d="M76.8042 65.6435C78.9709 65.6435 80.7273 63.9552 80.7273 61.8725C80.7273 59.7899 78.9709 58.1016 76.8042 58.1016C74.6375 58.1016 72.8811 59.7899 72.8811 61.8725C72.8811 63.9552 74.6375 65.6435 76.8042 65.6435Z" fill="#00e3c2"/>
<path opacity="0.4" d="M69.5435 66.3189C71.0634 66.3189 72.2956 65.1346 72.2956 63.6736C72.2956 62.2127 71.0634 61.0283 69.5435 61.0283C68.0236 61.0283 66.7915 62.2127 66.7915 63.6736C66.7915 65.1346 68.0236 66.3189 69.5435 66.3189Z" fill="#00e3c2"/>
<path d="M21.0292 79.8178C26.507 79.8178 30.9475 75.5495 30.9475 70.2842C30.9475 65.0189 26.507 60.7505 21.0292 60.7505C15.5515 60.7505 11.111 65.0189 11.111 70.2842C11.111 75.5495 15.5515 79.8178 21.0292 79.8178Z" fill="#2F2E41"/>
<path d="M19.5227 77.7661H16.5095V82.9554H19.5227V77.7661Z" fill="#2F2E41"/>
<path d="M25.549 77.7661H22.5359V82.9554H25.549V77.7661Z" fill="#2F2E41"/>
<path d="M19.0205 83.9205C20.4072 83.9205 21.5314 83.5153 21.5314 83.0154C21.5314 82.5156 20.4072 82.1104 19.0205 82.1104C17.6337 82.1104 16.5095 82.5156 16.5095 83.0154C16.5095 83.5153 17.6337 83.9205 19.0205 83.9205Z" fill="#2F2E41"/>
<path d="M25.0469 83.7999C26.4336 83.7999 27.5578 83.3947 27.5578 82.8948C27.5578 82.395 26.4336 81.9897 25.0469 81.9897C23.6601 81.9897 22.5359 82.395 22.5359 82.8948C22.5359 83.3947 23.6601 83.7999 25.0469 83.7999Z" fill="#2F2E41"/>
<path d="M21.2803 71.1285C23.1524 71.1285 24.6701 69.6697 24.6701 67.8702C24.6701 66.0706 23.1524 64.6118 21.2803 64.6118C19.4082 64.6118 17.8905 66.0706 17.8905 67.8702C17.8905 69.6697 19.4082 71.1285 21.2803 71.1285Z" fill="white"/>
<path d="M21.2803 67.5082C21.9044 67.5082 22.4102 67.0219 22.4102 66.4221C22.4102 65.8222 21.9044 65.3359 21.2803 65.3359C20.6563 65.3359 20.1504 65.8222 20.1504 66.4221C20.1504 67.0219 20.6563 67.5082 21.2803 67.5082Z" fill="#3F3D56"/>
<path d="M11.4082 61.4178C10.6074 57.9703 13.1674 54.4867 17.1262 53.637C21.085 52.7873 24.9434 54.8933 25.7443 58.3408C26.5452 61.7884 23.9215 63.0599 19.9627 63.9096C16.0039 64.7592 12.2091 64.8654 11.4082 61.4178Z" fill="#00e3c2"/>
<path d="M29.946 60.3651C31.1001 57.9776 31.4037 55.7598 30.6239 55.4115C29.8442 55.0632 28.2764 56.7163 27.1223 59.1038C25.9681 61.4913 25.6646 63.7091 26.4443 64.0574C27.2241 64.4056 28.7918 62.7525 29.946 60.3651Z" fill="#2F2E41"/>
<path d="M12.6497 66.8441C13.4096 66.4575 12.9869 64.2578 11.7056 61.931C10.4243 59.6042 8.76955 58.0314 8.00962 58.4181C7.2497 58.8047 7.67237 61.0044 8.95369 63.3312C10.235 65.658 11.8897 67.2308 12.6497 66.8441Z" fill="#2F2E41"/>
<path d="M104.733 67.6418C105.536 67.3445 105.387 65.1122 104.402 62.6557C103.417 60.1992 101.968 58.4488 101.166 58.746C100.364 59.0432 100.512 61.2756 101.497 63.7321C102.482 66.1886 103.931 67.939 104.733 67.6418Z" fill="#2F2E41"/>
<path d="M112.138 79.9023C117.616 79.9023 122.056 75.6339 122.056 70.3686C122.056 65.1033 117.616 60.835 112.138 60.835C106.66 60.835 102.22 65.1033 102.22 70.3686C102.22 75.6339 106.66 79.9023 112.138 79.9023Z" fill="#2F2E41"/>
<path d="M113.681 83.0355L116.694 83.0273L116.679 77.8381L113.666 77.8462L113.681 83.0355Z" fill="#2F2E41"/>
<path d="M107.655 83.0521L110.668 83.0439L110.653 77.8548L107.64 77.8629L107.655 83.0521Z" fill="#2F2E41"/>
<path d="M114.187 83.9997C115.573 83.996 116.696 83.5877 116.695 83.0879C116.693 82.588 115.568 82.1858 114.181 82.1895C112.795 82.1933 111.672 82.6015 111.673 83.1014C111.675 83.6013 112.8 84.0034 114.187 83.9997Z" fill="#2F2E41"/>
<path d="M108.16 83.8957C109.547 83.892 110.67 83.4837 110.668 82.9838C110.667 82.484 109.542 82.0818 108.155 82.0855C106.768 82.0893 105.645 82.4975 105.646 82.9974C105.648 83.4972 106.773 83.8994 108.16 83.8957Z" fill="#2F2E41"/>
<path d="M111.88 71.214C113.752 71.214 115.27 69.7551 115.27 67.9556C115.27 66.1561 113.752 64.6973 111.88 64.6973C110.008 64.6973 108.49 66.1561 108.49 67.9556C108.49 69.7551 110.008 71.214 111.88 71.214Z" fill="white"/>
<path d="M111.88 69.0419C112.504 69.0419 113.01 68.5556 113.01 67.9557C113.01 67.3559 112.504 66.8696 111.88 66.8696C111.256 66.8696 110.75 67.3559 110.75 67.9557C110.75 68.5556 111.256 69.0419 111.88 69.0419Z" fill="#3F3D56"/>
<path d="M121.733 61.4768C122.524 58.0271 119.954 54.5504 115.993 53.7114C112.031 52.8724 108.179 54.9887 107.388 58.4384C106.597 61.888 109.225 63.1525 113.186 63.9915C117.147 64.8305 120.943 64.9264 121.733 61.4768Z" fill="#00e3c2"/>
<path d="M123.968 67.2654C126.439 66.1306 128.142 64.6061 127.771 63.8604C127.401 63.1146 125.097 63.43 122.625 64.5648C120.154 65.6997 118.451 67.2242 118.822 67.9699C119.192 68.7157 121.496 68.4002 123.968 67.2654Z" fill="#2F2E41"/>
<path d="M117.02 73.7949C117.023 74.728 114.528 76.5773 111.755 76.5847C108.981 76.5922 106.373 73.9723 106.371 73.0392C106.368 72.1061 108.972 73.2132 111.745 73.2057C114.519 73.1983 117.017 72.8618 117.02 73.7949Z" fill="white"/>
<path opacity="0.4" d="M115.159 69.8671C122.803 69.8671 129 63.9104 129 56.5625C129 49.2145 122.803 43.2578 115.159 43.2578C107.514 43.2578 101.317 49.2145 101.317 56.5625C101.317 63.9104 107.514 69.8671 115.159 69.8671Z" fill="#00e3c2"/>
<path d="M23.9049 51.6015C29.3826 51.6015 33.8232 47.3332 33.8232 42.0679C33.8232 36.8026 29.3826 32.5342 23.9049 32.5342C18.4271 32.5342 13.9866 36.8026 13.9866 42.0679C13.9866 47.3332 18.4271 51.6015 23.9049 51.6015Z" fill="#2F2E41"/>
<path d="M21.0359 49.1722L18.0709 48.6562L17.1093 53.7625L20.0742 54.2784L21.0359 49.1722Z" fill="#2F2E41"/>
<path d="M26.9658 50.2039L24.0009 49.688L23.0392 54.7942L26.0042 55.3102L26.9658 50.2039Z" fill="#2F2E41"/>
<path d="M26.9548 57.2542C27.2909 56.8727 26.7055 55.8651 25.6472 55.0037C24.589 54.1422 23.4587 53.7531 23.1226 54.1345C22.7865 54.516 23.3719 55.5236 24.4302 56.385C25.4884 57.2465 26.6187 57.6356 26.9548 57.2542Z" fill="#2F2E41"/>
<path d="M21.1484 56.2434C21.4845 55.862 20.8991 54.8544 19.8408 53.9929C18.7826 53.1314 17.6523 52.7423 17.3162 53.1238C16.9801 53.5052 17.5655 54.5128 18.6238 55.3743C19.682 56.2358 20.8124 56.6249 21.1484 56.2434Z" fill="#2F2E41"/>
<path d="M24.5993 42.9942C26.4714 42.9942 27.9891 41.5354 27.9891 39.7359C27.9891 37.9363 26.4714 36.4775 24.5993 36.4775C22.7271 36.4775 21.2095 37.9363 21.2095 39.7359C21.2095 41.5354 22.7271 42.9942 24.5993 42.9942Z" fill="white"/>
<path d="M25.9925 39.6537C26.6165 39.6537 27.1224 39.1674 27.1224 38.5676C27.1224 37.9677 26.6165 37.4814 25.9925 37.4814C25.3684 37.4814 24.8625 37.9677 24.8625 38.5676C24.8625 39.1674 25.3684 39.6537 25.9925 39.6537Z" fill="#3F3D56"/>
<path d="M16.0809 31.696C15.9317 28.1665 19.0964 25.177 23.1493 25.0187C27.2022 24.8605 30.6087 27.5934 30.7579 31.1229C30.907 34.6525 28.0897 35.4544 24.0368 35.6126C19.9838 35.7709 16.23 35.2255 16.0809 31.696Z" fill="#00e3c2"/>
<path d="M33.4109 41.7893C36.0805 41.2011 38.089 40.0712 37.8969 39.2656C37.7048 38.46 35.3849 38.2838 32.7153 38.872C30.0456 39.4602 28.0372 40.5901 28.2293 41.3956C28.4214 42.2012 30.7413 42.3774 33.4109 41.7893Z" fill="#2F2E41"/>
<path d="M13.9417 44.9016C16.6113 44.3134 18.6197 43.1835 18.4276 42.3779C18.2355 41.5723 15.9156 41.3961 13.246 41.9843C10.5764 42.5725 8.56796 43.7024 8.76006 44.5079C8.95216 45.3135 11.2721 45.4898 13.9417 44.9016Z" fill="#2F2E41"/>
<path d="M21.1809 45.825C21.0742 46.3919 21.2061 46.9763 21.5476 47.4497C21.8891 47.9232 22.4123 48.2468 23.0021 48.3494C23.5919 48.452 24.1999 48.3252 24.6924 47.997C25.1849 47.6687 25.5216 47.1658 25.6284 46.5989C25.8507 45.4184 24.9012 45.0006 23.673 44.7869C22.4449 44.5732 21.4033 44.6445 21.1809 45.825Z" fill="white"/>
<path d="M47.2586 34.3233L38.3594 31.7588L35.9798 39.3882L44.879 41.9527L47.2586 34.3233Z" fill="#3F3D56"/>
<path d="M39.2799 40.3044L39.1632 40.2684C39.2047 40.1442 40.1967 37.2199 41.657 36.7534L41.6956 36.8652C40.2943 37.3129 39.2899 40.2746 39.2799 40.3044Z" fill="#00e3c2"/>
<path d="M42.4654 36.9199C42.8038 36.9199 43.0782 36.6561 43.0782 36.3308C43.0782 36.0054 42.8038 35.7417 42.4654 35.7417C42.1269 35.7417 41.8525 36.0054 41.8525 36.3308C41.8525 36.6561 42.1269 36.9199 42.4654 36.9199Z" fill="#00e3c2"/>
<path d="M41.7252 38.2886C41.3911 38.2928 41.0617 38.2126 40.77 38.056C41.0442 37.8704 41.3683 37.7649 41.7034 37.7523C42.0385 37.7396 42.3702 37.8204 42.6586 37.9849C42.3805 38.1629 42.0587 38.2677 41.7252 38.2886Z" fill="#00e3c2"/>
</svg>
