<svg width="178" height="117" viewBox="0 0 260 170" fill="none" xmlns="http://www.w3.org/2000/svg">
<g clip-path="url(#clip0)">
<path opacity="0.4" d="M176.18 105.619C186.906 105.619 195.602 97.2265 195.602 86.8738C195.602 76.521 186.906 68.1284 176.18 68.1284C165.454 68.1284 156.759 76.521 156.759 86.8738C156.759 97.2265 165.454 105.619 176.18 105.619Z" fill="#00e3c2"/>
<path d="M176.624 112.811H68.3214V141.142H176.624V112.811Z" fill="#3F3D56"/>
<path d="M169.687 42.6199L165.362 44.5953L169.19 41.8331C168.568 40.8959 167.869 40.0084 167.1 39.179L148.345 43.6782L165.286 37.4409C164.512 36.7817 163.69 36.1768 162.826 35.6311L134.248 40.074C131.214 43.7361 129.56 48.2852 129.558 52.9744H172.575C172.573 49.3377 171.577 45.7659 169.687 42.6199Z" fill="#F2F2F2"/>
<path d="M173.112 12.2592C155.922 4.16695 137.043 -0.0262604 117.918 -0.000122695C78.9923 -0.000122695 44.191 17.0357 21.0758 43.8026C60.6583 35.4317 129.575 20.9411 173.112 12.2592Z" fill="#F2F2F2"/>
<path d="M258.103 169.473H0V169.962H258.103V169.473Z" fill="#2F2E41"/>
<path d="M150.779 52.9743L136.137 31.9824C136.137 31.9824 158.311 39.4541 155.795 52.9743H150.779Z" fill="#3F3D56"/>
<path d="M151.354 52.9743L165.996 31.9824C165.996 31.9824 143.821 39.4541 146.338 52.9743H151.354Z" fill="#00e3c2"/>
<path d="M176.75 169.962H68.1949V13.6531H176.75V169.962ZM68.701 169.473H176.244V14.1415H68.701V169.473Z" fill="#2F2E41"/>
<path d="M176.624 17.3608H68.5745V17.8493H176.624V17.3608Z" fill="#2F2E41"/>
<path d="M71.3579 16.5837C71.917 16.5837 72.3701 16.1464 72.3701 15.6068C72.3701 15.0673 71.917 14.6299 71.3579 14.6299C70.7989 14.6299 70.3458 15.0673 70.3458 15.6068C70.3458 16.1464 70.7989 16.5837 71.3579 16.5837Z" fill="#00e3c2"/>
<path d="M74.1414 16.5837C74.7004 16.5837 75.1536 16.1464 75.1536 15.6068C75.1536 15.0673 74.7004 14.6299 74.1414 14.6299C73.5824 14.6299 73.1292 15.0673 73.1292 15.6068C73.1292 16.1464 73.5824 16.5837 74.1414 16.5837Z" fill="#00e3c2"/>
<path d="M76.9249 16.5837C77.4839 16.5837 77.937 16.1464 77.937 15.6068C77.937 15.0673 77.4839 14.6299 76.9249 14.6299C76.3659 14.6299 75.9127 15.0673 75.9127 15.6068C75.9127 16.1464 76.3659 16.5837 76.9249 16.5837Z" fill="#00e3c2"/>
<path d="M76.9249 20.7358H72.3701V23.1782H76.9249V20.7358Z" fill="#00e3c2"/>
<path d="M94.6378 40.03H72.3701V42.4724H94.6378V40.03Z" fill="#00e3c2"/>
<path d="M151.572 23.1782L173.84 23.1782V20.7359L151.572 20.7359V23.1782Z" fill="#F2F2F2"/>
<path d="M109.82 44.1821H72.3701V45.6475H109.82V44.1821Z" fill="#F2F2F2"/>
<path d="M107.796 47.3572H72.3701V48.8226H107.796V47.3572Z" fill="#F2F2F2"/>
<path d="M98.1805 50.5322H72.3701V51.9976H98.1805V50.5322Z" fill="#F2F2F2"/>
<path d="M95.65 94.0054H80.9736V95.4708H95.65V94.0054Z" fill="#F2F2F2"/>
<path d="M94.8567 97.1804H80.9736V98.6458H94.8567V97.1804Z" fill="#F2F2F2"/>
<path d="M91.0884 100.355H80.9736V101.821H91.0884V100.355Z" fill="#F2F2F2"/>
<path d="M129.811 94.0054H115.134V95.4708H129.811V94.0054Z" fill="#F2F2F2"/>
<path d="M129.017 97.1804H115.134V98.6458H129.017V97.1804Z" fill="#F2F2F2"/>
<path d="M125.249 100.355H115.134V101.821H125.249V100.355Z" fill="#F2F2F2"/>
<path d="M165.237 94.0054H150.56V95.4708H165.237V94.0054Z" fill="#F2F2F2"/>
<path d="M164.443 97.1804H150.56V98.6458H164.443V97.1804Z" fill="#F2F2F2"/>
<path d="M160.675 100.355H150.56V101.821H160.675V100.355Z" fill="#F2F2F2"/>
<path d="M126.015 149.446H103.747V151.889H126.015V149.446Z" fill="#00e3c2"/>
<path d="M141.198 153.598H103.747V155.064H141.198V153.598Z" fill="#F2F2F2"/>
<path d="M139.173 156.773H103.747V158.239H139.173V156.773Z" fill="#F2F2F2"/>
<path d="M129.558 159.948H103.747V161.414H129.558V159.948Z" fill="#F2F2F2"/>
<path opacity="0.3" d="M167.135 66.4072H79.0757V66.8957H167.135V66.4072Z" fill="#00e3c2"/>
<path opacity="0.3" d="M97.6744 74.9553H78.9492V91.0746H97.6744V74.9553Z" fill="#00e3c2"/>
<path d="M131.835 74.9553H113.11V91.0746H131.835V74.9553Z" fill="#3F3D56"/>
<path d="M167.261 74.9553H148.536V91.0746H167.261V74.9553Z" fill="#3F3D56"/>
<path d="M120.033 91.007L119.786 91.0023C119.791 90.7383 119.945 84.5152 122.484 82.7952L122.626 82.9903C120.19 84.6409 120.034 90.9435 120.033 91.007Z" fill="#00e3c2"/>
<path d="M123.79 82.7164C124.472 82.7164 125.025 82.1826 125.025 81.5242C125.025 80.8658 124.472 80.332 123.79 80.332C123.108 80.332 122.555 80.8658 122.555 81.5242C122.555 82.1826 123.108 82.7164 123.79 82.7164Z" fill="#00e3c2"/>
<path d="M123.54 85.7338C122.898 85.9285 122.213 85.9571 121.556 85.8165C121.973 85.3034 122.536 84.9179 123.175 84.7062C123.814 84.4945 124.503 84.4658 125.159 84.6235C124.73 85.124 124.171 85.5069 123.54 85.7338Z" fill="#00e3c2"/>
<path d="M155.459 91.007L155.212 91.0023C155.217 90.7383 155.371 84.5152 157.91 82.7952L158.052 82.9903C155.616 84.6409 155.46 90.9435 155.459 91.007Z" fill="#00e3c2"/>
<path d="M159.216 82.7164C159.898 82.7164 160.451 82.1826 160.451 81.5242C160.451 80.8658 159.898 80.332 159.216 80.332C158.534 80.332 157.981 80.8658 157.981 81.5242C157.981 82.1826 158.534 82.7164 159.216 82.7164Z" fill="#00e3c2"/>
<path d="M158.966 85.7338C158.324 85.9285 157.639 85.9571 156.982 85.8165C157.399 85.3034 157.962 84.9179 158.601 84.7062C159.24 84.4945 159.929 84.4658 160.585 84.6235C160.156 85.124 159.597 85.5069 158.966 85.7338Z" fill="#00e3c2"/>
<path d="M94.6378 121.848H72.3701V124.29H94.6378V121.848Z" fill="#00e3c2"/>
<path d="M109.82 126H72.3701V127.465H109.82V126Z" fill="#F2F2F2"/>
<path d="M107.796 129.175H72.3701V130.64H107.796V129.175Z" fill="#F2F2F2"/>
<path d="M98.1805 132.35H72.3701V133.815H98.1805V132.35Z" fill="#F2F2F2"/>
<path opacity="0.4" d="M154.799 132.85C159.166 132.85 162.706 129.433 162.706 125.218C162.706 121.004 159.166 117.587 154.799 117.587C150.432 117.587 146.892 121.004 146.892 125.218C146.892 129.433 150.432 132.85 154.799 132.85Z" fill="#00e3c2"/>
<path opacity="0.4" d="M140.165 134.217C143.229 134.217 145.712 131.82 145.712 128.863C145.712 125.907 143.229 123.51 140.165 123.51C137.102 123.51 134.619 125.907 134.619 128.863C134.619 131.82 137.102 134.217 140.165 134.217Z" fill="#00e3c2"/>
<path d="M42.3846 161.536C53.425 161.536 62.3749 152.897 62.3749 142.241C62.3749 131.585 53.425 122.947 42.3846 122.947C31.3442 122.947 22.3943 131.585 22.3943 142.241C22.3943 152.897 31.3442 161.536 42.3846 161.536Z" fill="#2F2E41"/>
<path d="M39.3481 157.384H33.2751V167.886H39.3481V157.384Z" fill="#2F2E41"/>
<path d="M51.4941 157.384H45.4211V167.886H51.4941V157.384Z" fill="#2F2E41"/>
<path d="M38.3359 169.84C41.1309 169.84 43.3968 169.02 43.3968 168.008C43.3968 166.996 41.1309 166.176 38.3359 166.176C35.5409 166.176 33.2751 166.996 33.2751 168.008C33.2751 169.02 35.5409 169.84 38.3359 169.84Z" fill="#2F2E41"/>
<path d="M50.482 169.595C53.277 169.595 55.5428 168.775 55.5428 167.764C55.5428 166.752 53.277 165.932 50.482 165.932C47.6869 165.932 45.4211 166.752 45.4211 167.764C45.4211 168.775 47.6869 169.595 50.482 169.595Z" fill="#2F2E41"/>
<path d="M42.8907 143.951C46.664 143.951 49.7228 140.999 49.7228 137.357C49.7228 133.715 46.664 130.762 42.8907 130.762C39.1174 130.762 36.0585 133.715 36.0585 137.357C36.0585 140.999 39.1174 143.951 42.8907 143.951Z" fill="white"/>
<path d="M42.8907 136.624C44.1484 136.624 45.1681 135.64 45.1681 134.426C45.1681 133.212 44.1484 132.228 42.8907 132.228C41.6329 132.228 40.6133 133.212 40.6133 134.426C40.6133 135.64 41.6329 136.624 42.8907 136.624Z" fill="#3F3D56"/>
<path d="M22.9933 124.298C21.3792 117.321 26.5389 110.271 34.5178 108.551C42.4968 106.832 50.2736 111.094 51.8877 118.071C53.5018 125.048 48.2139 127.621 40.2349 129.341C32.2559 131.06 24.6074 131.275 22.9933 124.298Z" fill="#00e3c2"/>
<path d="M60.3561 122.168C62.6824 117.336 63.2941 112.848 61.7226 112.143C60.151 111.438 56.9912 114.784 54.665 119.615C52.3388 124.447 51.727 128.936 53.2986 129.64C54.8701 130.345 58.0299 127 60.3561 122.168Z" fill="#2F2E41"/>
<path d="M25.4954 135.279C27.027 134.497 26.1752 130.045 23.5927 125.336C21.0102 120.627 17.675 117.444 16.1434 118.227C14.6118 119.009 15.4637 123.461 18.0462 128.17C20.6287 132.879 23.9638 136.062 25.4954 135.279Z" fill="#2F2E41"/>
<path d="M211.09 136.894C212.707 136.293 212.409 131.775 210.423 126.804C208.438 121.832 205.518 118.289 203.901 118.891C202.284 119.493 202.582 124.01 204.568 128.982C206.553 133.953 209.473 137.496 211.09 136.894Z" fill="#2F2E41"/>
<path d="M226.015 161.707C237.055 161.707 246.005 153.069 246.005 142.413C246.005 131.757 237.055 123.118 226.015 123.118C214.974 123.118 206.024 131.757 206.024 142.413C206.024 153.069 214.974 161.707 226.015 161.707Z" fill="#2F2E41"/>
<path d="M229.125 168.048L235.198 168.031L235.167 157.53L229.094 157.546L229.125 168.048Z" fill="#2F2E41"/>
<path d="M216.98 168.082L223.053 168.065L223.022 157.563L216.949 157.58L216.98 168.082Z" fill="#2F2E41"/>
<path d="M230.144 170C232.939 169.992 235.202 169.166 235.199 168.154C235.196 167.143 232.928 166.329 230.133 166.336C227.338 166.344 225.075 167.17 225.077 168.182C225.08 169.193 227.349 170.007 230.144 170Z" fill="#2F2E41"/>
<path d="M217.997 169.788C220.792 169.781 223.055 168.955 223.052 167.943C223.049 166.931 220.781 166.117 217.986 166.125C215.191 166.133 212.928 166.959 212.931 167.97C212.934 168.982 215.202 169.796 217.997 169.788Z" fill="#2F2E41"/>
<path d="M225.495 144.124C229.268 144.124 232.327 141.171 232.327 137.53C232.327 133.888 229.268 130.935 225.495 130.935C221.721 130.935 218.662 133.888 218.662 137.53C218.662 141.171 221.721 144.124 225.495 144.124Z" fill="white"/>
<path d="M225.495 139.728C226.752 139.728 227.772 138.744 227.772 137.53C227.772 136.316 226.752 135.332 225.495 135.332C224.237 135.332 223.217 136.316 223.217 137.53C223.217 138.744 224.237 139.728 225.495 139.728Z" fill="#3F3D56"/>
<path d="M245.354 124.417C246.948 117.436 241.768 110.4 233.784 108.702C225.8 107.004 218.035 111.287 216.442 118.268C214.848 125.25 220.143 127.809 228.127 129.507C236.111 131.205 243.76 131.399 245.354 124.417Z" fill="#00e3c2"/>
<path d="M249.857 136.132C254.838 133.835 258.27 130.75 257.523 129.241C256.776 127.731 252.133 128.37 247.152 130.666C242.171 132.963 238.739 136.048 239.486 137.558C240.233 139.067 244.876 138.429 249.857 136.132Z" fill="#2F2E41"/>
<path d="M235.854 149.347C235.86 151.235 230.833 154.978 225.243 154.993C219.653 155.008 214.396 149.706 214.391 147.817C214.385 145.929 219.633 148.169 225.223 148.154C230.813 148.139 235.849 147.458 235.854 149.347Z" fill="white"/>
<path opacity="0.4" d="M232.103 141.398C247.51 141.398 260 129.343 260 114.472C260 99.6011 247.51 87.5459 232.103 87.5459C216.695 87.5459 204.205 99.6011 204.205 114.472C204.205 129.343 216.695 141.398 232.103 141.398Z" fill="#00e3c2"/>
<path d="M48.1805 104.431C59.2209 104.431 68.1708 95.7929 68.1708 85.1369C68.1708 74.4809 59.2209 65.8425 48.1805 65.8425C37.1401 65.8425 28.1901 74.4809 28.1901 85.1369C28.1901 95.7929 37.1401 104.431 48.1805 104.431Z" fill="#2F2E41"/>
<path d="M42.3979 99.5151L36.422 98.4709L34.4837 108.805L40.4596 109.849L42.3979 99.5151Z" fill="#2F2E41"/>
<path d="M54.3497 101.603L48.3738 100.559L46.4355 110.893L52.4114 111.937L54.3497 101.603Z" fill="#2F2E41"/>
<path d="M54.3276 115.871C55.005 115.099 53.825 113.06 51.6921 111.316C49.5592 109.573 47.281 108.786 46.6036 109.558C45.9263 110.33 47.1062 112.369 49.2391 114.112C51.372 115.856 53.6502 116.643 54.3276 115.871Z" fill="#2F2E41"/>
<path d="M42.6248 113.826C43.3022 113.054 42.1223 111.015 39.9893 109.272C37.8564 107.528 35.5782 106.741 34.9009 107.513C34.2235 108.285 35.4034 110.324 37.5363 112.067C39.6692 113.811 41.9474 114.598 42.6248 113.826Z" fill="#2F2E41"/>
<path d="M49.58 87.0118C53.3533 87.0118 56.4121 84.0594 56.4121 80.4175C56.4121 76.7756 53.3533 73.8232 49.58 73.8232C45.8067 73.8232 42.7478 76.7756 42.7478 80.4175C42.7478 84.0594 45.8067 87.0118 49.58 87.0118Z" fill="white"/>
<path d="M52.388 80.2519C53.6457 80.2519 54.6654 79.2678 54.6654 78.0538C54.6654 76.8398 53.6457 75.8557 52.388 75.8557C51.1302 75.8557 50.1106 76.8398 50.1106 78.0538C50.1106 79.2678 51.1302 80.2519 52.388 80.2519Z" fill="#3F3D56"/>
<path d="M32.4109 64.1469C32.1103 57.0038 38.4886 50.9536 46.6574 50.6334C54.8261 50.3131 61.6918 55.844 61.9925 62.9871C62.2931 70.1302 56.6148 71.7531 48.4461 72.0734C40.2773 72.3936 32.7115 71.2899 32.4109 64.1469Z" fill="#00e3c2"/>
<path d="M67.3399 84.5738C72.7205 83.3834 76.7685 81.0967 76.3813 79.4664C75.9942 77.8361 71.3184 77.4794 65.9378 78.6698C60.5571 79.8602 56.5091 82.1468 56.8963 83.7772C57.2835 85.4075 61.9592 85.7642 67.3399 84.5738Z" fill="#2F2E41"/>
<path d="M28.0996 90.8721C33.4802 89.6817 37.5282 87.3951 37.141 85.7647C36.7538 84.1344 32.0781 83.7778 26.6975 84.9681C21.3168 86.1585 17.2688 88.4452 17.656 90.0755C18.0432 91.7059 22.7189 92.0625 28.0996 90.8721Z" fill="#2F2E41"/>
<path d="M42.6901 92.7406C42.4749 93.8879 42.7408 95.0707 43.4291 96.0289C44.1175 96.987 45.172 97.6419 46.3607 97.8496C47.5494 98.0573 48.7748 97.8007 49.7675 97.1363C50.7602 96.4719 51.4388 95.4541 51.654 94.3069C52.1021 91.9178 50.1883 91.0723 47.713 90.6399C45.2377 90.2074 43.1382 90.3515 42.6901 92.7406Z" fill="white"/>
<path d="M95.2497 69.4638L77.3133 64.2737L72.5173 79.7141L90.4537 84.9042L95.2497 69.4638Z" fill="#3F3D56"/>
<path d="M79.1688 81.5679L78.9335 81.495C79.0172 81.2436 81.0166 75.3254 83.9598 74.3813L84.0376 74.6076C81.2132 75.5135 79.1888 81.5075 79.1688 81.5679Z" fill="#00e3c2"/>
<path d="M85.589 74.7183C86.2712 74.7183 86.8242 74.1846 86.8242 73.5262C86.8242 72.8677 86.2712 72.334 85.589 72.334C84.9068 72.334 84.3538 72.8677 84.3538 73.5262C84.3538 74.1846 84.9068 74.7183 85.589 74.7183Z" fill="#00e3c2"/>
<path d="M84.0973 77.4892C83.4239 77.4977 82.76 77.3353 82.1721 77.0184C82.7246 76.6427 83.3779 76.4293 84.0533 76.4037C84.7286 76.3782 85.3972 76.5417 85.9785 76.8745C85.418 77.2348 84.7693 77.4468 84.0973 77.4892Z" fill="#00e3c2"/>
</g>
<defs>
<clipPath id="clip0">
<rect width="260" height="170" fill="white"/>
</clipPath>
</defs>
</svg>
