<svg width="129" height="84" viewBox="0 0 129 84" fill="none" xmlns="http://www.w3.org/2000/svg">
<path d="M128.158 69.3772H64.3372C64.114 69.3769 63.9 69.2913 63.7421 69.139C63.5843 68.9867 63.4955 68.7802 63.4952 68.5648V0.812379C63.4955 0.596998 63.5843 0.39051 63.7421 0.238212C63.9 0.0859152 64.114 0.000246403 64.3372 0H128.158C128.381 0.000246403 128.595 0.0859152 128.753 0.238212C128.911 0.39051 129 0.596998 129 0.812379V68.5648C129 68.7802 128.911 68.9867 128.753 69.139C128.595 69.2913 128.381 69.3769 128.158 69.3772ZM64.3372 0.324952C64.2033 0.325093 64.0749 0.376492 63.9801 0.467872C63.8854 0.559251 63.8322 0.683149 63.832 0.812379V68.5648C63.8322 68.694 63.8854 68.8179 63.9801 68.9093C64.0749 69.0007 64.2033 69.0521 64.3372 69.0522H128.158C128.292 69.0521 128.42 69.0007 128.515 68.9093C128.61 68.8179 128.663 68.694 128.663 68.5648V0.812379C128.663 0.683149 128.61 0.559251 128.515 0.467872C128.42 0.376492 128.292 0.325093 128.158 0.324952H64.3372Z" fill="#3F3D56"/>
<path d="M91.8695 25.8338H76.0406C75.8173 25.8335 75.6033 25.7478 75.4455 25.5955C75.2876 25.4433 75.1989 25.2368 75.1986 25.0214V9.74866C75.1989 9.53328 75.2876 9.32679 75.4455 9.17449C75.6033 9.02219 75.8173 8.93653 76.0406 8.93628H91.8695C92.0927 8.93653 92.3067 9.02219 92.4646 9.17449C92.6224 9.32679 92.7112 9.53328 92.7114 9.74866V25.0214C92.7112 25.2368 92.6224 25.4433 92.4646 25.5955C92.3067 25.7478 92.0927 25.8335 91.8695 25.8338ZM76.0406 9.26123C75.9066 9.26137 75.7782 9.31277 75.6835 9.40415C75.5888 9.49553 75.5355 9.61943 75.5354 9.74866V25.0214C75.5355 25.1506 75.5888 25.2745 75.6835 25.3659C75.7782 25.4573 75.9066 25.5087 76.0406 25.5088H91.8695C92.0034 25.5087 92.1318 25.4573 92.2265 25.3659C92.3212 25.2745 92.3745 25.1506 92.3747 25.0214V9.74866C92.3745 9.61943 92.3212 9.49553 92.2265 9.40415C92.1318 9.31277 92.0034 9.26137 91.8695 9.26123H76.0406Z" fill="#F2F2F2"/>
<path d="M87.3227 27.702H71.4939C71.2929 27.7018 71.1003 27.6247 70.9583 27.4877C70.8162 27.3506 70.7363 27.1647 70.7361 26.9709V11.6982C70.7363 11.5043 70.8162 11.3185 70.9583 11.1814C71.1003 11.0444 71.2929 10.9673 71.4939 10.967H87.3227C87.5236 10.9673 87.7163 11.0444 87.8583 11.1814C88.0004 11.3185 88.0803 11.5043 88.0805 11.6982V26.9709C88.0803 27.1647 88.0004 27.3506 87.8583 27.4877C87.7163 27.6247 87.5236 27.7018 87.3227 27.702Z" fill="#00E3C2"/>
<path d="M121.001 35.1759H71.4939C71.2929 35.1759 71.1001 35.0989 70.958 34.9618C70.8159 34.8246 70.7361 34.6387 70.7361 34.4448C70.7361 34.2509 70.8159 34.0649 70.958 33.9278C71.1001 33.7907 71.2929 33.7136 71.4939 33.7136H121.001C121.202 33.7136 121.395 33.7907 121.537 33.9278C121.679 34.0649 121.759 34.2509 121.759 34.4448C121.759 34.6387 121.679 34.8246 121.537 34.9618C121.395 35.0989 121.202 35.1759 121.001 35.1759Z" fill="#CCCCCC"/>
<path d="M109.045 40.2128H71.4939C71.2929 40.2128 71.1001 40.1357 70.958 39.9986C70.8159 39.8615 70.7361 39.6755 70.7361 39.4816C70.7361 39.2877 70.8159 39.1018 70.958 38.9646C71.1001 38.8275 71.2929 38.7505 71.4939 38.7505H109.045C109.246 38.7505 109.439 38.8275 109.581 38.9646C109.723 39.1018 109.803 39.2877 109.803 39.4816C109.803 39.6755 109.723 39.8615 109.581 39.9986C109.439 40.1357 109.246 40.2128 109.045 40.2128Z" fill="#CCCCCC"/>
<path d="M120.833 16.6537H98.9418C98.7409 16.6537 98.5481 16.5767 98.406 16.4395C98.2639 16.3024 98.1841 16.1165 98.1841 15.9225C98.1841 15.7286 98.2639 15.5427 98.406 15.4056C98.5481 15.2684 98.7409 15.1914 98.9418 15.1914H120.833C121.034 15.1914 121.227 15.2684 121.369 15.4056C121.511 15.5427 121.591 15.7286 121.591 15.9225C121.591 16.1165 121.511 16.3024 121.369 16.4395C121.227 16.5767 121.034 16.6537 120.833 16.6537Z" fill="#CCCCCC"/>
<path d="M115.37 21.6906H98.9418C98.7409 21.6906 98.5481 21.6135 98.406 21.4764C98.2639 21.3393 98.1841 21.1533 98.1841 20.9594C98.1841 20.7655 98.2639 20.5795 98.406 20.4424C98.5481 20.3053 98.7409 20.2283 98.9418 20.2283H115.37C115.571 20.2283 115.763 20.3053 115.905 20.4424C116.048 20.5795 116.127 20.7655 116.127 20.9594C116.127 21.1533 116.048 21.3393 115.905 21.4764C115.763 21.6135 115.571 21.6906 115.37 21.6906Z" fill="#CCCCCC"/>
<path d="M121.001 45.2496H71.4939C71.2929 45.2496 71.1001 45.1726 70.958 45.0355C70.8159 44.8984 70.7361 44.7124 70.7361 44.5185C70.7361 44.3246 70.8159 44.1386 70.958 44.0015C71.1001 43.8644 71.2929 43.7874 71.4939 43.7874H121.001C121.202 43.7874 121.395 43.8644 121.537 44.0015C121.679 44.1386 121.759 44.3246 121.759 44.5185C121.759 44.7124 121.679 44.8984 121.537 45.0355C121.395 45.1726 121.202 45.2496 121.001 45.2496Z" fill="#CCCCCC"/>
<path d="M109.045 50.2863H71.4939C71.2929 50.2863 71.1001 50.2092 70.958 50.0721C70.8159 49.935 70.7361 49.749 70.7361 49.5551C70.7361 49.3612 70.8159 49.1752 70.958 49.0381C71.1001 48.901 71.2929 48.824 71.4939 48.824H109.045C109.246 48.824 109.439 48.901 109.581 49.0381C109.723 49.1752 109.803 49.3612 109.803 49.5551C109.803 49.749 109.723 49.935 109.581 50.0721C109.439 50.2092 109.246 50.2863 109.045 50.2863Z" fill="#CCCCCC"/>
<path d="M121.001 55.3231H71.4939C71.2929 55.3231 71.1001 55.2461 70.958 55.109C70.8159 54.9719 70.7361 54.7859 70.7361 54.592C70.7361 54.3981 70.8159 54.2121 70.958 54.075C71.1001 53.9379 71.2929 53.8608 71.4939 53.8608H121.001C121.202 53.8608 121.395 53.9379 121.537 54.075C121.679 54.2121 121.759 54.3981 121.759 54.592C121.759 54.7859 121.679 54.9719 121.537 55.109C121.395 55.2461 121.202 55.3231 121.001 55.3231Z" fill="#CCCCCC"/>
<path d="M121.001 60.3597H71.4939C71.2929 60.3597 71.1001 60.2827 70.958 60.1456C70.8159 60.0085 70.7361 59.8225 70.7361 59.6286C70.7361 59.4347 70.8159 59.2487 70.958 59.1116C71.1001 58.9745 71.2929 58.8975 71.4939 58.8975H121.001C121.202 58.8975 121.395 58.9745 121.537 59.1116C121.679 59.2487 121.759 59.4347 121.759 59.6286C121.759 59.8225 121.679 60.0085 121.537 60.1456C121.395 60.2827 121.202 60.3597 121.001 60.3597Z" fill="#CCCCCC"/>
<path d="M81.0803 63.0912H44.8759C44.6527 63.091 44.4387 63.0053 44.2808 62.853C44.123 62.7007 44.0342 62.4942 44.0339 62.2788V40.6696C44.0342 40.4542 44.123 40.2477 44.2808 40.0954C44.4387 39.9431 44.6527 39.8574 44.8759 39.8572H81.0803C81.3035 39.8574 81.5175 39.9431 81.6754 40.0954C81.8332 40.2477 81.922 40.4542 81.9223 40.6696V62.2788C81.922 62.4942 81.8332 62.7007 81.6754 62.853C81.5175 63.0053 81.3035 63.091 81.0803 63.0912Z" fill="white"/>
<path d="M81.0803 63.0912H44.8759C44.6527 63.091 44.4387 63.0053 44.2808 62.853C44.123 62.7007 44.0342 62.4942 44.0339 62.2788V40.6696C44.0342 40.4542 44.123 40.2477 44.2808 40.0954C44.4387 39.9431 44.6527 39.8574 44.8759 39.8572H81.0803C81.3035 39.8574 81.5175 39.9431 81.6754 40.0954C81.8332 40.2477 81.922 40.4542 81.9223 40.6696V62.2788C81.922 62.4942 81.8332 62.7007 81.6754 62.853C81.5175 63.0053 81.3035 63.091 81.0803 63.0912ZM44.8759 40.1821C44.742 40.1823 44.6136 40.2337 44.5188 40.325C44.4241 40.4164 44.3709 40.5403 44.3707 40.6696V62.2788C44.3709 62.4081 44.4241 62.532 44.5188 62.6233C44.6136 62.7147 44.742 62.7661 44.8759 62.7663H81.0803C81.2142 62.7661 81.3426 62.7147 81.4374 62.6233C81.5321 62.532 81.5853 62.4081 81.5855 62.2788V40.6696C81.5853 40.5403 81.5321 40.4164 81.4374 40.325C81.3426 40.2337 81.2142 40.1823 81.0803 40.1821H44.8759Z" fill="#3F3D56"/>
<path d="M73.9237 49.6869H52.0327C51.8317 49.6869 51.639 49.6099 51.4969 49.4727C51.3547 49.3356 51.2749 49.1497 51.2749 48.9557C51.2749 48.7618 51.3547 48.5759 51.4969 48.4388C51.639 48.3016 51.8317 48.2246 52.0327 48.2246H73.9237C74.1247 48.2246 74.3174 48.3016 74.4595 48.4388C74.6016 48.5759 74.6815 48.7618 74.6815 48.9557C74.6815 49.1497 74.6016 49.3356 74.4595 49.4727C74.3174 49.6099 74.1247 49.6869 73.9237 49.6869Z" fill="#CCCCCC"/>
<path d="M73.9237 54.7238H52.0327C51.8317 54.7238 51.639 54.6467 51.4969 54.5096C51.3547 54.3725 51.2749 54.1865 51.2749 53.9926C51.2749 53.7987 51.3547 53.6127 51.4969 53.4756C51.639 53.3385 51.8317 53.2615 52.0327 53.2615H73.9237C74.1247 53.2615 74.3174 53.3385 74.4595 53.4756C74.6016 53.6127 74.6815 53.7987 74.6815 53.9926C74.6815 54.1865 74.6016 54.3725 74.4595 54.5096C74.3174 54.6467 74.1247 54.7238 73.9237 54.7238Z" fill="#CCCCCC"/>
<path d="M38.7867 82.0325H40.8512L41.8333 74.3494L38.7864 74.3495L38.7867 82.0325Z" fill="#A0616A"/>
<path d="M38.2601 81.3822L42.3258 81.3821H42.326C43.0131 81.3821 43.6721 81.6455 44.158 82.1143C44.6439 82.5831 44.9169 83.219 44.9169 83.882V83.9632L38.2603 83.9634L38.2601 81.3822Z" fill="#2F2E41"/>
<path d="M22.7122 81.1702L24.7534 81.4679L26.9149 74.0128L24.239 73.5735L22.7122 81.1702Z" fill="#A0616A"/>
<path d="M22.2922 80.4514L26.3123 81.0377L26.3124 81.0377C26.9919 81.1369 27.6026 81.4923 28.0104 82.026C28.4182 82.5596 28.5896 83.2277 28.487 83.8832L28.4744 83.9635L21.8925 83.0036L22.2922 80.4514Z" fill="#2F2E41"/>
<path d="M29.0774 43.9568L31.3696 44.5363L31.2171 48.122L31.1982 54.6506C31.4241 54.8013 31.5972 55.0146 31.6946 55.2623C31.7921 55.51 31.8093 55.7804 31.744 56.0377C31.6788 56.2951 31.534 56.5272 31.329 56.7035C31.124 56.8797 30.8684 56.9918 30.596 57.0248C30.3235 57.0578 30.0471 57.0103 29.8033 56.8885C29.5594 56.7666 29.3597 56.5762 29.2305 56.3425C29.1012 56.1087 29.0486 55.8426 29.0795 55.5793C29.1104 55.3161 29.2234 55.0681 29.4036 54.8682L28.6992 48.3157L29.0774 43.9568Z" fill="#A0616A"/>
<path d="M28.6784 39.8497C28.6911 39.5031 28.8069 39.1675 29.012 38.8827C29.2171 38.598 29.5029 38.3763 29.8351 38.2441C30.1461 38.1099 30.491 38.0661 30.8274 38.1183C31.1638 38.1705 31.4771 38.3164 31.7288 38.538C31.9097 38.6939 32.0531 38.8861 32.1492 39.101C32.2452 39.316 32.2915 39.5486 32.2848 39.7826C32.2908 41.8832 31.7993 44.945 31.7943 44.9756L31.7865 45.0243L28.436 46.1129L28.6784 39.8497Z" fill="#00E3C2"/>
<path d="M34.6691 45.8124L39.7937 44.5325L42.1626 52.2302L42.2468 80.9072L38.328 80.8835L36.6898 57.6731L26.2495 79.1199L22.0397 78.6325L31.2171 55.6422C31.2171 55.6422 30.7119 51.5803 32.3116 49.5493L31.9748 47.4371L34.6691 45.8124Z" fill="#2F2E41"/>
<path d="M31.2137 47.7276C31.142 47.6436 31.09 47.5456 31.0611 47.4405C31.0322 47.3353 31.0271 47.2254 31.0462 47.1181L28.7086 40.3519C28.5995 40.0356 28.5879 39.6955 28.6753 39.373C28.7626 39.0505 28.9452 38.7593 29.2007 38.535L30.2155 37.645L30.9031 34.991L34.8555 35.9231L34.5299 37.1799L36.3187 36.8663L40.0863 44.9628L32.211 48L31.8231 48.0059C31.7065 48.0061 31.5913 47.9812 31.4859 47.9331C31.3804 47.8849 31.2875 47.8147 31.2137 47.7276Z" fill="#00E3C2"/>
<path d="M36.6996 42.0147L38.9579 41.3223L40.8155 44.4314L44.4163 49.9587C44.6907 49.9696 44.9552 50.0606 45.1747 50.2197C45.3943 50.3788 45.5587 50.5984 45.6461 50.8496C45.7335 51.1007 45.7398 51.3716 45.6642 51.6263C45.5886 51.881 45.4346 52.1075 45.2226 52.276C45.0107 52.4444 44.7507 52.5468 44.4772 52.5695C44.2036 52.5923 43.9293 52.5344 43.6906 52.4035C43.4518 52.2726 43.2599 52.0749 43.1402 51.8364C43.0205 51.598 42.9786 51.3301 43.0201 51.0682L38.7948 45.8937L36.6996 42.0147Z" fill="#A0616A"/>
<path d="M34.0871 38.7493C33.9058 38.4499 33.8177 38.1065 33.8333 37.7601C33.8489 37.4137 33.9676 37.079 34.1752 36.7959C34.3637 36.5221 34.631 36.3074 34.9442 36.178C35.2574 36.0487 35.6029 36.0103 35.9384 36.0676C36.1777 36.1062 36.4054 36.1946 36.6056 36.3267C36.8059 36.4588 36.9738 36.6315 37.0978 36.8327C38.2666 38.6049 39.5474 41.4462 39.5602 41.4746L39.5805 41.5198L37.352 44.1678L34.0871 38.7493Z" fill="#00E3C2"/>
<path d="M33.8275 34.4972C35.5618 34.4972 36.9678 33.1407 36.9678 31.4672C36.9678 29.7938 35.5618 28.4373 33.8275 28.4373C32.0931 28.4373 30.6871 29.7938 30.6871 31.4672C30.6871 33.1407 32.0931 34.4972 33.8275 34.4972Z" fill="#A0616A"/>
<path d="M28.2777 30.1891C29.9484 30.1891 31.3027 28.8824 31.3027 27.2705C31.3027 25.6585 29.9484 24.3518 28.2777 24.3518C26.6071 24.3518 25.2528 25.6585 25.2528 27.2705C25.2528 28.8824 26.6071 30.1891 28.2777 30.1891Z" fill="#2F2E41"/>
<path d="M25.6686 29.6872C26.0601 29.9603 26.5137 30.1388 26.9915 30.2081C27.4692 30.2773 27.9571 30.2351 28.4145 30.085C28.8719 29.935 29.2853 29.6814 29.6203 29.3456C29.9553 29.0098 30.2021 28.6014 30.3399 28.1547C30.2878 28.555 30.1501 28.9406 29.9357 29.287C29.7213 29.6334 29.4348 29.9332 29.0943 30.1674C28.7538 30.4015 28.3666 30.5651 27.9573 30.6476C27.548 30.7302 27.1253 30.7299 26.7161 30.6469C26.3069 30.5639 25.9199 30.3999 25.5797 30.1653C25.2395 29.9308 24.9533 29.6307 24.7394 29.284C24.5254 28.9373 24.3882 28.5516 24.3365 28.1512C24.2849 27.7509 24.3198 27.3445 24.4391 26.9578C24.3713 27.4773 24.4497 28.0049 24.6661 28.4851C24.8824 28.9654 25.2287 29.3806 25.6686 29.6872Z" fill="#2F2E41"/>
<path d="M37.6063 29.6905C37.0783 28.7783 36.8762 28.3973 36.1953 27.8426C35.5932 27.352 34.8526 27.2079 34.2552 27.6728C33.5485 27.3782 32.7622 27.3114 32.013 27.4823C31.2639 27.6532 30.5918 28.0527 30.0968 28.6215C29.6017 29.1903 29.3099 29.898 29.2649 30.6395C29.2199 31.3811 29.424 32.1168 29.8468 32.7375C30.2697 33.3582 30.8888 33.8307 31.6121 34.0848C32.3355 34.339 33.1245 34.3613 33.862 34.1483C34.5995 33.9353 35.2461 33.4985 35.7058 32.9027C36.1656 32.3069 36.4138 31.584 36.4138 30.8412C36.4132 30.7107 36.4051 30.5804 36.3894 30.4509C36.9086 30.3805 37.0871 29.7609 37.6063 29.6905Z" fill="#2F2E41"/>
<path d="M64.326 84H0.168393C0.123732 84 0.0809007 83.9829 0.0493209 83.9524C0.0177412 83.9219 0 83.8806 0 83.8375C0 83.7944 0.0177412 83.7531 0.0493209 83.7226C0.0809007 83.6922 0.123732 83.675 0.168393 83.675H64.326C64.3706 83.675 64.4135 83.6922 64.445 83.7226C64.4766 83.7531 64.4944 83.7944 64.4944 83.8375C64.4944 83.8806 64.4766 83.9219 64.445 83.9524C64.4135 83.9829 64.3706 84 64.326 84Z" fill="#CCCCCC"/>
</svg>
