<svg width="129" height="84" viewBox="0 0 129 84" fill="none" xmlns="http://www.w3.org/2000/svg">
<path d="M27.9508 74.563C31.6559 74.563 34.6595 71.1591 34.6595 66.9601C34.6595 62.7611 31.6559 59.3572 27.9508 59.3572C24.2457 59.3572 21.2421 62.7611 21.2421 66.9601C21.2421 71.1591 24.2457 74.563 27.9508 74.563Z" fill="#F2F2F2"/>
<path d="M29.0416 73.4502C32.7467 73.4502 35.7503 70.0463 35.7503 65.8473C35.7503 61.6483 32.7467 58.2444 29.0416 58.2444C25.3365 58.2444 22.3329 61.6483 22.3329 65.8473C22.3329 70.0463 25.3365 73.4502 29.0416 73.4502Z" fill="#00e3c2"/>
<path d="M117.449 57.4348H34.4445V57.6915H117.449V57.4348Z" fill="#3F3D56"/>
<path d="M77.4328 2.39373H47.9712V1.70557H34.6121V2.39373H5.02899C4.76729 2.39373 4.50814 2.45215 4.26636 2.56565C4.02457 2.67915 3.80488 2.84551 3.61983 3.05523C3.43477 3.26495 3.28798 3.51392 3.18783 3.78793C3.08768 4.06194 3.03613 4.35563 3.03613 4.65222V50.3714C3.03613 50.9704 3.24609 51.5448 3.61983 51.9684C3.99356 52.3919 4.50045 52.6299 5.02899 52.6299H77.4328C77.9614 52.6299 78.4683 52.3919 78.842 51.9684C79.2157 51.5448 79.4257 50.9704 79.4257 50.3714V4.65222C79.4257 4.35563 79.3742 4.06194 79.274 3.78793C79.1739 3.51392 79.0271 3.26495 78.842 3.05523C78.657 2.84551 78.4373 2.67915 78.1955 2.56565C77.9537 2.45215 77.6945 2.39373 77.4328 2.39373Z" fill="#3F3D56"/>
<path d="M76.754 6.38501H5.70801V51.804H76.754V6.38501Z" fill="#00e3c2"/>
<path d="M41.1702 5.14647C41.5726 5.14647 41.8989 4.77675 41.8989 4.32067C41.8989 3.8646 41.5726 3.49487 41.1702 3.49487C40.7678 3.49487 40.4415 3.8646 40.4415 4.32067C40.4415 4.77675 40.7678 5.14647 41.1702 5.14647Z" fill="#00e3c2"/>
<path opacity="0.1" d="M56.436 51.804H5.70801V6.38501L56.436 51.804Z" fill="#293339"/>
<path d="M16.8245 48.4053C20.5962 48.4053 23.6537 44.9403 23.6537 40.6659C23.6537 36.3916 20.5962 32.9265 16.8245 32.9265C13.0529 32.9265 9.99536 36.3916 9.99536 40.6659C9.99536 44.9403 13.0529 48.4053 16.8245 48.4053Z" fill="#F2F2F2"/>
<path d="M64.3836 30.8799H57.7472V32.4514H64.3836V30.8799Z" fill="#3F3D56"/>
<path d="M72.4068 18.6443H49.724V19.3178H72.4068V18.6443Z" fill="#3F3D56"/>
<path d="M72.4068 20.7771H49.724V21.4506H72.4068V20.7771Z" fill="#3F3D56"/>
<path d="M72.4068 22.9099H49.724V23.5834H72.4068V22.9099Z" fill="#3F3D56"/>
<path d="M72.4068 25.0427H49.724V25.7162H72.4068V25.0427Z" fill="#3F3D56"/>
<path d="M72.4068 27.1755H49.724V27.8491H72.4068V27.1755Z" fill="#3F3D56"/>
<path d="M72.4068 7.30664H69.6333V10.4498H72.4068V7.30664Z" fill="#F2F2F2"/>
<path d="M73.6944 11.9089H70.3267V8.09229H73.6944V11.9089ZM70.4731 11.743H73.548V8.25823H70.4731V11.743Z" fill="#3F3D56"/>
<path d="M81.4205 50.9782H74.4869V50.4121C74.4869 50.3973 74.4844 50.3827 74.4794 50.3691C74.4744 50.3555 74.4671 50.3431 74.4579 50.3327C74.4487 50.3223 74.4378 50.314 74.4258 50.3084C74.4138 50.3027 74.4009 50.2998 74.3879 50.2998H72.0106C71.9976 50.2998 71.9847 50.3027 71.9727 50.3084C71.9607 50.314 71.9498 50.3223 71.9406 50.3327C71.9314 50.3431 71.9241 50.3555 71.9191 50.3691C71.9141 50.3827 71.9116 50.3973 71.9116 50.4121V50.9782H70.4258V50.4121C70.4258 50.3973 70.4232 50.3827 70.4183 50.3691C70.4133 50.3555 70.406 50.3431 70.3968 50.3327C70.3876 50.3223 70.3767 50.314 70.3647 50.3084C70.3526 50.3027 70.3398 50.2998 70.3268 50.2998H67.9495C67.9365 50.2998 67.9236 50.3027 67.9116 50.3084C67.8996 50.314 67.8887 50.3223 67.8795 50.3327C67.8703 50.3431 67.863 50.3555 67.858 50.3691C67.853 50.3827 67.8505 50.3973 67.8505 50.4121V50.9782H66.3647V50.4121C66.3647 50.3973 66.3621 50.3827 66.3571 50.3691C66.3522 50.3555 66.3449 50.3431 66.3357 50.3327C66.3265 50.3223 66.3156 50.314 66.3035 50.3084C66.2915 50.3027 66.2786 50.2998 66.2656 50.2998H63.8884C63.8754 50.2998 63.8625 50.3027 63.8505 50.3084C63.8385 50.314 63.8275 50.3223 63.8183 50.3327C63.8092 50.3431 63.8019 50.3555 63.7969 50.3691C63.7919 50.3827 63.7893 50.3973 63.7893 50.4121V50.9782H62.3036V50.4121C62.3036 50.3973 62.301 50.3827 62.296 50.3691C62.291 50.3555 62.2837 50.3431 62.2745 50.3327C62.2653 50.3223 62.2544 50.314 62.2424 50.3084C62.2304 50.3027 62.2175 50.2998 62.2045 50.2998H59.8273C59.8143 50.2998 59.8014 50.3027 59.7894 50.3084C59.7773 50.314 59.7664 50.3223 59.7572 50.3327C59.748 50.3431 59.7407 50.3555 59.7357 50.3691C59.7308 50.3827 59.7282 50.3973 59.7282 50.4121V50.9782H58.2424V50.4121C58.2424 50.3973 58.2399 50.3827 58.2349 50.3691C58.2299 50.3555 58.2226 50.3431 58.2134 50.3327C58.2042 50.3223 58.1933 50.314 58.1813 50.3084C58.1693 50.3027 58.1564 50.2998 58.1434 50.2998H55.7661C55.7531 50.2998 55.7403 50.3027 55.7282 50.3084C55.7162 50.314 55.7053 50.3223 55.6961 50.3327C55.6869 50.3431 55.6796 50.3555 55.6746 50.3691C55.6697 50.3827 55.6671 50.3973 55.6671 50.4121V50.9782H54.1813V50.4121C54.1813 50.3973 54.1788 50.3827 54.1738 50.3691C54.1688 50.3555 54.1615 50.3431 54.1523 50.3327C54.1431 50.3223 54.1322 50.314 54.1202 50.3084C54.1082 50.3027 54.0953 50.2998 54.0823 50.2998H51.705C51.692 50.2998 51.6791 50.3027 51.6671 50.3084C51.6551 50.314 51.6442 50.3223 51.635 50.3327C51.6258 50.3431 51.6185 50.3555 51.6135 50.3691C51.6085 50.3827 51.606 50.3973 51.606 50.4121V50.9782H50.1202V50.4121C50.1202 50.3973 50.1176 50.3827 50.1126 50.3691C50.1077 50.3555 50.1004 50.3431 50.0912 50.3327C50.082 50.3223 50.0711 50.314 50.059 50.3084C50.047 50.3027 50.0341 50.2998 50.0211 50.2998H31.3994C31.3864 50.2998 31.3735 50.3027 31.3615 50.3084C31.3495 50.314 31.3386 50.3223 31.3294 50.3327C31.3202 50.3431 31.3129 50.3555 31.3079 50.3691C31.3029 50.3827 31.3004 50.3973 31.3004 50.4121V50.9782H29.8146V50.4121C29.8146 50.3973 29.812 50.3827 29.807 50.3691C29.8021 50.3555 29.7948 50.3431 29.7856 50.3327C29.7764 50.3223 29.7655 50.314 29.7534 50.3084C29.7414 50.3027 29.7285 50.2998 29.7155 50.2998H27.3383C27.3253 50.2998 27.3124 50.3027 27.3004 50.3084C27.2884 50.314 27.2774 50.3223 27.2682 50.3327C27.259 50.3431 27.2518 50.3555 27.2468 50.3691C27.2418 50.3827 27.2392 50.3973 27.2392 50.4121V50.9782H25.7535V50.4121C25.7535 50.3973 25.7509 50.3827 25.7459 50.3691C25.7409 50.3555 25.7336 50.3431 25.7244 50.3327C25.7152 50.3223 25.7043 50.314 25.6923 50.3084C25.6803 50.3027 25.6674 50.2998 25.6544 50.2998H23.2772C23.2642 50.2998 23.2513 50.3027 23.2393 50.3084C23.2272 50.314 23.2163 50.3223 23.2071 50.3327C23.1979 50.3431 23.1906 50.3555 23.1856 50.3691C23.1807 50.3827 23.1781 50.3973 23.1781 50.4121V50.9782H21.6923V50.4121C21.6923 50.3973 21.6898 50.3827 21.6848 50.3691C21.6798 50.3555 21.6725 50.3431 21.6633 50.3327C21.6541 50.3223 21.6432 50.314 21.6312 50.3084C21.6192 50.3027 21.6063 50.2998 21.5933 50.2998H19.216C19.203 50.2998 19.1902 50.3027 19.1781 50.3084C19.1661 50.314 19.1552 50.3223 19.146 50.3327C19.1368 50.3431 19.1295 50.3555 19.1245 50.3691C19.1196 50.3827 19.117 50.3973 19.117 50.4121V50.9782H17.6312V50.4121C17.6312 50.3973 17.6287 50.3827 17.6237 50.3691C17.6187 50.3555 17.6114 50.3431 17.6022 50.3327C17.593 50.3223 17.5821 50.314 17.5701 50.3084C17.5581 50.3027 17.5452 50.2998 17.5322 50.2998H15.1549C15.1419 50.2998 15.129 50.3027 15.117 50.3084C15.105 50.314 15.0941 50.3223 15.0849 50.3327C15.0757 50.3431 15.0684 50.3555 15.0634 50.3691C15.0584 50.3827 15.0559 50.3973 15.0559 50.4121V50.9782H13.5701V50.4121C13.5701 50.3973 13.5675 50.3827 13.5626 50.3691C13.5576 50.3555 13.5503 50.3431 13.5411 50.3327C13.5319 50.3223 13.521 50.314 13.5089 50.3084C13.4969 50.3027 13.484 50.2998 13.471 50.2998H11.0938C11.0808 50.2998 11.0679 50.3027 11.0559 50.3084C11.0439 50.314 11.033 50.3223 11.0238 50.3327C11.0146 50.3431 11.0073 50.3555 11.0023 50.3691C10.9973 50.3827 10.9947 50.3973 10.9947 50.4121V50.9782H9.50897V50.4121C9.50897 50.3973 9.50641 50.3827 9.50143 50.3691C9.49645 50.3555 9.48916 50.3431 9.47996 50.3327C9.47076 50.3223 9.45984 50.314 9.44782 50.3084C9.43581 50.3027 9.42293 50.2998 9.40992 50.2998H7.03268C7.01967 50.2998 7.00679 50.3027 6.99477 50.3084C6.98275 50.314 6.97183 50.3223 6.96263 50.3327C6.95344 50.3431 6.94614 50.3555 6.94116 50.3691C6.93618 50.3827 6.93362 50.3973 6.93362 50.4121V50.9782H2.37724C1.74676 50.9782 1.1421 51.2621 0.696279 51.7673C0.25046 52.2725 6.00663e-07 52.9578 0 53.6723V54.8905C1.80199e-06 55.605 0.250461 56.2903 0.696281 56.7955C1.1421 57.3008 1.74676 57.5846 2.37724 57.5846H81.4205C82.051 57.5846 82.6557 57.3008 83.1015 56.7955C83.5473 56.2903 83.7978 55.605 83.7978 54.8905V53.6723C83.7978 52.9578 83.5473 52.2725 83.1015 51.7673C82.6557 51.2621 82.051 50.9782 81.4205 50.9782Z" fill="#3F3D56"/>
<path d="M18.4775 45.4999C16.7753 45.4999 15.1114 44.9279 13.6961 43.8562C12.2808 42.7845 11.1777 41.2612 10.5263 39.479C9.87494 37.6968 9.70451 35.7357 10.0366 33.8437C10.3687 31.9518 11.1883 30.2139 12.3919 28.8499C13.5955 27.4858 15.129 26.5569 16.7985 26.1806C18.4679 25.8042 20.1984 25.9974 21.771 26.7356C23.3435 27.4738 24.6877 28.7239 25.6333 30.3279C26.579 31.9318 27.0837 33.8175 27.0837 35.7465C27.0812 38.3324 26.1736 40.8115 24.5602 42.64C22.9467 44.4685 20.7592 45.497 18.4775 45.4999ZM18.4775 26.2498C16.8201 26.2498 15.2 26.8068 13.8219 27.8503C12.4439 28.8938 11.3698 30.377 10.7356 32.1123C10.1013 33.8476 9.93538 35.7571 10.2587 37.5993C10.5821 39.4414 11.3801 41.1336 12.5521 42.4617C13.724 43.7899 15.2171 44.6943 16.8427 45.0608C18.4682 45.4272 20.1531 45.2391 21.6843 44.5203C23.2155 43.8016 24.5242 42.5843 25.445 41.0226C26.3658 39.4609 26.8573 37.6248 26.8573 35.7465C26.8547 33.2287 25.9711 30.8149 24.4001 29.0345C22.8291 27.2541 20.6992 26.2527 18.4775 26.2498Z" fill="#3F3D56"/>
<path d="M95.2544 4.17651H66.3782V4.43318H95.2544V4.17651Z" fill="#3F3D56"/>
<path d="M129 71.9365H45.995V72.1932H129V71.9365Z" fill="#3F3D56"/>
<path d="M50.6944 83.7434H21.8182V84.0001H50.6944V83.7434Z" fill="#3F3D56"/>
<path d="M56.5069 70.5835H53.3362V74.1768H56.5069V70.5835Z" fill="#00e3c2"/>
<path d="M58.4319 72.1236H54.5818V67.7603H58.4319V72.1236ZM54.7492 71.9339H58.2645V67.95H54.7492V71.9339Z" fill="#3F3D56"/>
<path d="M93.31 2.82324H90.1393V6.41659H93.31V2.82324Z" fill="#00e3c2"/>
<path d="M95.2351 4.36335H91.3849V0H95.2351V4.36335ZM91.5523 4.17364H95.0677V0.189711H91.5523V4.17364Z" fill="#3F3D56"/>
<path d="M125.244 70.5835H122.073V74.1768H125.244V70.5835Z" fill="#00e3c2"/>
<path d="M127.169 72.1236H123.319V67.7603H127.169V72.1236ZM123.486 71.9339H127.001V67.95H123.486V71.9339Z" fill="#3F3D56"/>
<path d="M119.714 29.7681H119.445V21.4056C119.445 20.77 119.334 20.1407 119.12 19.5534C118.905 18.9662 118.591 18.4327 118.194 17.9833C117.797 17.5338 117.327 17.1773 116.809 16.9341C116.29 16.6909 115.735 16.5657 115.174 16.5657H99.541C98.9802 16.5657 98.4248 16.6909 97.9067 16.9341C97.3885 17.1773 96.9177 17.5338 96.5211 17.9833C96.1246 18.4327 95.81 18.9662 95.5954 19.5534C95.3807 20.1407 95.2703 20.77 95.2703 21.4056V67.2825C95.2703 67.9181 95.3807 68.5475 95.5954 69.1347C95.81 69.7219 96.1246 70.2555 96.5211 70.7049C96.9177 71.1543 97.3885 71.5109 97.9067 71.7541C98.4248 71.9973 98.9802 72.1225 99.541 72.1225H115.174C115.735 72.1225 116.29 71.9973 116.809 71.7541C117.327 71.5109 117.797 71.1543 118.194 70.7049C118.591 70.2555 118.905 69.7219 119.12 69.1347C119.334 68.5475 119.445 67.9181 119.445 67.2825V35.7206H119.714V29.7681Z" fill="#3F3D56"/>
<path d="M118.536 21.69V67.5001C118.536 68.4587 118.2 69.3781 117.602 70.0561C117.004 70.7341 116.193 71.1151 115.347 71.1152H99.6381C98.7922 71.1151 97.981 70.7341 97.383 70.0561C96.785 69.3781 96.4491 68.4587 96.4492 67.5001V21.69C96.4493 20.7316 96.7853 19.8125 97.3833 19.1348C97.9813 18.4571 98.7924 18.0763 99.6381 18.0762H101.544C101.45 18.3369 101.414 18.6198 101.44 18.8998C101.465 19.1799 101.551 19.4486 101.69 19.6823C101.828 19.916 102.015 20.1074 102.235 20.2398C102.454 20.3722 102.698 20.4414 102.947 20.4414H111.903C112.152 20.4414 112.396 20.3722 112.615 20.2398C112.835 20.1074 113.022 19.916 113.161 19.6823C113.299 19.4486 113.385 19.1799 113.41 18.8998C113.436 18.6198 113.4 18.3369 113.306 18.0762H115.347C116.192 18.0763 117.003 18.4571 117.602 19.1348C118.2 19.8125 118.536 20.7316 118.536 21.69Z" fill="#00e3c2"/>
<path d="M109.832 48.2815H105.153V49.8531H109.832V48.2815Z" fill="#3F3D56"/>
<path d="M115.489 36.0457H99.4954V36.7192H115.489V36.0457Z" fill="#3F3D56"/>
<path d="M115.489 38.1785H99.4954V38.852H115.489V38.1785Z" fill="#3F3D56"/>
<path d="M115.489 40.3115H99.4954V40.985H115.489V40.3115Z" fill="#3F3D56"/>
<path d="M115.489 42.4443H99.4954V43.1179H115.489V42.4443Z" fill="#3F3D56"/>
<path d="M115.489 44.5771H99.4954V45.2507H115.489V44.5771Z" fill="#3F3D56"/>
<path d="M108.051 27.1013H105.278V30.2444H108.051V27.1013Z" fill="#F2F2F2"/>
<path d="M106.339 27.8875V31.7041H109.707V27.8875H106.339ZM109.561 31.5385H106.485V28.053H109.561V31.5385Z" fill="#3F3D56"/>
<path opacity="0.1" d="M118.536 62.6079V67.5C118.536 68.4587 118.2 69.3781 117.602 70.0561C117.004 70.734 116.193 71.115 115.347 71.1152H99.6381C98.7922 71.115 97.981 70.734 97.383 70.0561C96.785 69.3781 96.4491 68.4587 96.4492 67.5V42.833L109.684 54.6821L109.91 54.8848L112.372 57.0883L112.602 57.2949L118.536 62.6079Z" fill="#293339"/>
<path d="M106.133 69.6305C108.877 69.6305 111.101 67.11 111.101 64.0008C111.101 60.8916 108.877 58.3711 106.133 58.3711C103.39 58.3711 101.166 60.8916 101.166 64.0008C101.166 67.11 103.39 69.6305 106.133 69.6305Z" fill="#F2F2F2"/>
<path d="M36.2562 84C34.3077 84 32.4029 83.3452 30.7828 82.1184C29.1626 80.8915 27.8999 79.1478 27.1542 77.1077C26.4086 75.0675 26.2135 72.8226 26.5936 70.6568C26.9737 68.491 27.912 66.5016 29.2899 64.9401C30.6677 63.3786 32.4231 62.3153 34.3342 61.8845C36.2453 61.4537 38.2262 61.6748 40.0264 62.5198C41.8266 63.3649 43.3652 64.7959 44.4478 66.632C45.5303 68.4681 46.1081 70.6267 46.1081 72.835C46.1052 75.7951 45.0662 78.633 43.2193 80.7262C41.3723 82.8193 38.8682 83.9967 36.2562 84ZM36.2562 61.9266C34.3525 61.9266 32.4915 62.5664 30.9086 63.765C29.3257 64.9636 28.092 66.6673 27.3635 68.6605C26.635 70.6538 26.4443 72.8471 26.8157 74.9631C27.1871 77.0791 28.1039 79.0228 29.45 80.5484C30.7961 82.0739 32.5112 83.1129 34.3784 83.5338C36.2455 83.9547 38.1809 83.7386 39.9397 82.913C41.6985 82.0874 43.2018 80.6892 44.2594 78.8954C45.3171 77.1015 45.8816 74.9924 45.8816 72.835C45.8787 69.9429 44.8637 67.1702 43.0592 65.1252C41.2547 63.0802 38.8081 61.9299 36.2562 61.9266Z" fill="#3F3D56"/>
<path d="M107.598 68.3433C106.366 68.3433 105.162 67.9293 104.137 67.1537C103.113 66.3782 102.315 65.2758 101.843 63.986C101.372 62.6963 101.249 61.2771 101.489 59.9079C101.729 58.5387 102.323 57.281 103.194 56.2939C104.065 55.3068 105.174 54.6345 106.383 54.3622C107.591 54.0898 108.843 54.2296 109.981 54.7639C111.119 55.2981 112.092 56.2028 112.776 57.3635C113.46 58.5243 113.826 59.8889 113.826 61.2849C113.824 63.1563 113.167 64.9504 112 66.2736C110.832 67.5969 109.249 68.3412 107.598 68.3433ZM107.598 54.4832C106.411 54.4832 105.25 54.8821 104.263 55.6295C103.276 56.3769 102.507 57.4392 102.053 58.682C101.598 59.9249 101.48 61.2925 101.711 62.6119C101.943 63.9313 102.514 65.1432 103.354 66.0945C104.193 67.0457 105.262 67.6935 106.427 67.9559C107.591 68.2184 108.798 68.0837 109.894 67.5689C110.991 67.0541 111.928 66.1823 112.588 65.0638C113.247 63.9452 113.599 62.6302 113.599 61.2849C113.598 59.4816 112.965 57.7528 111.839 56.4776C110.714 55.2025 109.189 54.4853 107.598 54.4832Z" fill="#3F3D56"/>
</svg>
