<svg width="193" height="117" viewBox="0 0 260 170" fill="none" xmlns="http://www.w3.org/2000/svg">
<g clip-path="url(#clip0)">
<path d="M56.3348 150.901C63.8025 150.901 69.8563 144.012 69.8563 135.514C69.8563 127.016 63.8025 120.127 56.3348 120.127C48.8671 120.127 42.8133 127.016 42.8133 135.514C42.8133 144.012 48.8671 150.901 56.3348 150.901Z" fill="#F2F2F2"/>
<path d="M58.5334 148.649C66.0011 148.649 72.0549 141.761 72.0549 133.263C72.0549 124.765 66.0011 117.876 58.5334 117.876C51.0657 117.876 45.0119 124.765 45.0119 133.263C45.0119 141.761 51.0657 148.649 58.5334 148.649Z" fill="#00e3c2"/>
<path d="M236.72 116.237H69.4229V116.757H236.72V116.237Z" fill="#3F3D56"/>
<path d="M156.066 4.84438H96.6861V3.45166H69.7609V4.84438H10.136C9.60853 4.84438 9.08622 4.9626 8.59891 5.1923C8.11159 5.422 7.6688 5.75868 7.29582 6.18312C6.92284 6.60755 6.62698 7.11142 6.42513 7.66597C6.22327 8.22052 6.11938 8.81488 6.11938 9.41512V101.942C6.11938 103.154 6.54256 104.317 7.29582 105.174C8.04908 106.031 9.07072 106.513 10.136 106.513H156.066C157.132 106.513 158.153 106.031 158.906 105.174C159.66 104.317 160.083 103.154 160.083 101.942V9.41512C160.083 8.81488 159.979 8.22052 159.777 7.66597C159.575 7.11142 159.279 6.60755 158.906 6.18312C158.533 5.75868 158.091 5.422 157.603 5.1923C157.116 4.9626 156.594 4.84438 156.066 4.84438Z" fill="#3F3D56"/>
<path d="M154.698 12.9221H11.5044V104.841H154.698V12.9221Z" fill="#00e3c2"/>
<path d="M82.9787 10.4153C83.7898 10.4153 84.4474 9.66703 84.4474 8.74402C84.4474 7.821 83.7898 7.07275 82.9787 7.07275C82.1676 7.07275 81.5101 7.821 81.5101 8.74402C81.5101 9.66703 82.1676 10.4153 82.9787 10.4153Z" fill="#00e3c2"/>
<path opacity="0.1" d="M113.747 104.842H11.5045V12.9224L113.747 104.842Z" fill="#293339"/>
<path d="M33.9099 97.9633C41.5117 97.9633 47.6741 90.9507 47.6741 82.3003C47.6741 73.6498 41.5117 66.6372 33.9099 66.6372C26.3081 66.6372 20.1457 73.6498 20.1457 82.3003C20.1457 90.9507 26.3081 97.9633 33.9099 97.9633Z" fill="#F2F2F2"/>
<path d="M129.765 62.4951H116.39V65.6757H129.765V62.4951Z" fill="#3F3D56"/>
<path d="M145.936 37.7324H100.219V39.0955H145.936V37.7324Z" fill="#3F3D56"/>
<path d="M145.936 42.0488H100.219V43.4119H145.936V42.0488Z" fill="#3F3D56"/>
<path d="M145.936 46.3652H100.219V47.7283H145.936V46.3652Z" fill="#3F3D56"/>
<path d="M145.936 50.6816H100.219V52.0447H145.936V50.6816Z" fill="#3F3D56"/>
<path d="M145.936 54.998H100.219V56.3611H145.936V54.998Z" fill="#3F3D56"/>
<path d="M145.936 14.7871H140.346V21.1482H145.936V14.7871Z" fill="#F2F2F2"/>
<path d="M148.532 24.1014H141.744V16.3772H148.532V24.1014ZM142.039 23.7655H148.236V16.713H142.039V23.7655Z" fill="#3F3D56"/>
<path d="M164.103 103.17H150.129V102.025C150.129 101.995 150.124 101.965 150.114 101.938C150.103 101.91 150.089 101.885 150.07 101.864C150.052 101.843 150.03 101.826 150.005 101.815C149.981 101.803 149.955 101.797 149.929 101.797H145.138C145.111 101.797 145.086 101.803 145.061 101.815C145.037 101.826 145.015 101.843 144.997 101.864C144.978 101.885 144.963 101.91 144.953 101.938C144.943 101.965 144.938 101.995 144.938 102.025V103.17H141.943V102.025C141.943 101.995 141.938 101.965 141.928 101.938C141.918 101.91 141.904 101.885 141.885 101.864C141.866 101.843 141.844 101.826 141.82 101.815C141.796 101.803 141.77 101.797 141.744 101.797H136.952C136.926 101.797 136.9 101.803 136.876 101.815C136.852 101.826 136.83 101.843 136.811 101.864C136.793 101.885 136.778 101.91 136.768 101.938C136.758 101.965 136.753 101.995 136.753 102.025V103.17H133.758V102.025C133.758 101.995 133.753 101.965 133.743 101.938C133.733 101.91 133.718 101.885 133.7 101.864C133.681 101.843 133.659 101.826 133.635 101.815C133.611 101.803 133.585 101.797 133.559 101.797H128.767C128.741 101.797 128.715 101.803 128.691 101.815C128.667 101.826 128.645 101.843 128.626 101.864C128.608 101.885 128.593 101.91 128.583 101.938C128.573 101.965 128.568 101.995 128.568 102.025V103.17H125.573V102.025C125.573 101.995 125.568 101.965 125.558 101.938C125.548 101.91 125.533 101.885 125.515 101.864C125.496 101.843 125.474 101.826 125.45 101.815C125.426 101.803 125.4 101.797 125.373 101.797H120.582C120.556 101.797 120.53 101.803 120.506 101.815C120.481 101.826 120.459 101.843 120.441 101.864C120.422 101.885 120.408 101.91 120.398 101.938C120.388 101.965 120.382 101.995 120.382 102.025V103.17H117.388V102.025C117.388 101.995 117.383 101.965 117.373 101.938C117.363 101.91 117.348 101.885 117.329 101.864C117.311 101.843 117.289 101.826 117.265 101.815C117.24 101.803 117.214 101.797 117.188 101.797H112.397C112.371 101.797 112.345 101.803 112.32 101.815C112.296 101.826 112.274 101.843 112.256 101.864C112.237 101.885 112.222 101.91 112.212 101.938C112.202 101.965 112.197 101.995 112.197 102.025V103.17H109.203V102.025C109.203 101.995 109.197 101.965 109.187 101.938C109.177 101.91 109.163 101.885 109.144 101.864C109.126 101.843 109.104 101.826 109.079 101.815C109.055 101.803 109.029 101.797 109.003 101.797H104.212C104.185 101.797 104.159 101.803 104.135 101.815C104.111 101.826 104.089 101.843 104.071 101.864C104.052 101.885 104.037 101.91 104.027 101.938C104.017 101.965 104.012 101.995 104.012 102.025V103.17H101.017V102.025C101.017 101.995 101.012 101.965 101.002 101.938C100.992 101.91 100.978 101.885 100.959 101.864C100.94 101.843 100.918 101.826 100.894 101.815C100.87 101.803 100.844 101.797 100.818 101.797H63.2856C63.2594 101.797 63.2335 101.803 63.2092 101.815C63.185 101.826 63.163 101.843 63.1445 101.864C63.1259 101.885 63.1112 101.91 63.1012 101.938C63.0912 101.965 63.086 101.995 63.086 102.025V103.17H60.0914V102.025C60.0914 101.995 60.0862 101.965 60.0762 101.938C60.0662 101.91 60.0515 101.885 60.0329 101.864C60.0144 101.843 59.9924 101.826 59.9682 101.815C59.9439 101.803 59.918 101.797 59.8918 101.797H55.1004C55.0742 101.797 55.0482 101.803 55.024 101.815C54.9998 101.826 54.9778 101.843 54.9593 101.864C54.9407 101.885 54.926 101.91 54.916 101.938C54.9059 101.965 54.9008 101.995 54.9008 102.025V103.17H51.9062V102.025C51.9062 101.995 51.901 101.965 51.891 101.938C51.881 101.91 51.8663 101.885 51.8477 101.864C51.8292 101.843 51.8072 101.826 51.783 101.815C51.7587 101.803 51.7328 101.797 51.7066 101.797H46.9152C46.889 101.797 46.863 101.803 46.8388 101.815C46.8146 101.826 46.7926 101.843 46.774 101.864C46.7555 101.885 46.7408 101.91 46.7308 101.938C46.7207 101.965 46.7156 101.995 46.7156 102.025V103.17H43.721V102.025C43.721 101.995 43.7158 101.965 43.7058 101.938C43.6958 101.91 43.6811 101.885 43.6625 101.864C43.644 101.843 43.622 101.826 43.5977 101.815C43.5735 101.803 43.5476 101.797 43.5213 101.797H38.73C38.7038 101.797 38.6778 101.803 38.6536 101.815C38.6294 101.826 38.6074 101.843 38.5888 101.864C38.5703 101.885 38.5556 101.91 38.5456 101.938C38.5355 101.965 38.5304 101.995 38.5304 102.025V103.17H35.5358V102.025C35.5358 101.995 35.5306 101.965 35.5206 101.938C35.5106 101.91 35.4959 101.885 35.4773 101.864C35.4588 101.843 35.4368 101.826 35.4125 101.815C35.3883 101.803 35.3624 101.797 35.3362 101.797H30.5448C30.5186 101.797 30.4926 101.803 30.4684 101.815C30.4442 101.826 30.4222 101.843 30.4036 101.864C30.3851 101.885 30.3704 101.91 30.3604 101.938C30.3503 101.965 30.3452 101.995 30.3452 102.025V103.17H27.3506V102.025C27.3506 101.995 27.3454 101.965 27.3354 101.938C27.3253 101.91 27.3106 101.885 27.2921 101.864C27.2736 101.843 27.2516 101.826 27.2273 101.815C27.2031 101.803 27.1772 101.797 27.1509 101.797H22.3596C22.3334 101.797 22.3074 101.803 22.2832 101.815C22.259 101.826 22.237 101.843 22.2184 101.864C22.1999 101.885 22.1852 101.91 22.1751 101.938C22.1651 101.965 22.16 101.995 22.16 102.025V103.17H19.1654V102.025C19.1654 101.995 19.1602 101.965 19.1502 101.938C19.1401 101.91 19.1254 101.885 19.1069 101.864C19.0884 101.843 19.0663 101.826 19.0421 101.815C19.0179 101.803 18.9919 101.797 18.9657 101.797H14.1744C14.1482 101.797 14.1222 101.803 14.098 101.815C14.0738 101.826 14.0518 101.843 14.0332 101.864C14.0147 101.885 14 101.91 13.9899 101.938C13.9799 101.965 13.9747 101.995 13.9747 102.025V103.17H4.79134C3.5206 103.17 2.3019 103.745 1.40335 104.767C0.504802 105.79 1.21064e-06 107.177 0 108.623V111.088C3.63191e-06 112.534 0.504806 113.921 1.40336 114.943C2.30191 115.966 3.5206 116.54 4.79134 116.54H164.103C165.374 116.54 166.593 115.966 167.491 114.943C168.39 113.921 168.895 112.534 168.895 111.088V108.623C168.895 107.177 168.39 105.79 167.491 104.767C166.593 103.745 165.374 103.17 164.103 103.17Z" fill="#3F3D56"/>
<path d="M37.2416 92.0831C33.8109 92.0831 30.4572 90.9255 27.6047 88.7565C24.7522 86.5876 22.5289 83.5048 21.216 79.898C19.9032 76.2911 19.5597 72.3223 20.229 68.4933C20.8983 64.6643 22.5503 61.1472 24.9762 58.3866C27.402 55.6261 30.4928 53.7461 33.8576 52.9845C37.2224 52.2229 40.7101 52.6138 43.8796 54.1078C47.0492 55.6018 49.7582 58.1318 51.6642 61.3778C53.5702 64.6239 54.5876 68.4402 54.5876 72.3442C54.5824 77.5775 52.7532 82.5947 49.5013 86.2952C46.2494 89.9957 41.8404 92.0772 37.2416 92.0831ZM37.2416 53.1247C33.9012 53.1247 30.6358 54.2519 27.8583 56.3638C25.0809 58.4756 22.9161 61.4773 21.6378 64.9892C20.3594 68.5011 20.025 72.3655 20.6767 76.0937C21.3283 79.822 22.9369 83.2465 25.2989 85.9344C27.661 88.6223 30.6704 90.4528 33.9466 91.1944C37.2229 91.936 40.6188 91.5554 43.7049 90.1007C46.7911 88.646 49.4289 86.1826 51.2847 83.022C53.1405 79.8614 54.1311 76.1455 54.1311 72.3442C54.126 67.2486 52.345 62.3634 49.1787 58.7603C46.0124 55.1572 41.7194 53.1304 37.2416 53.1247Z" fill="#3F3D56"/>
<path d="M191.986 8.45215H133.785V8.97159H191.986V8.45215Z" fill="#3F3D56"/>
<path d="M260 145.586H92.703V146.105H260V145.586Z" fill="#3F3D56"/>
<path d="M102.175 169.48H43.9746V170H102.175V169.48Z" fill="#3F3D56"/>
<path d="M113.89 142.848H107.499V150.12H113.89V142.848Z" fill="#00e3c2"/>
<path d="M117.77 145.964H110.01V137.134H117.77V145.964ZM110.347 145.58H117.432V137.518H110.347V145.58Z" fill="#3F3D56"/>
<path d="M188.067 5.71387H181.676V12.9861H188.067V5.71387Z" fill="#00e3c2"/>
<path d="M191.947 8.83059H184.187V0H191.947V8.83059ZM184.524 8.44665H191.609V0.383939H184.524V8.44665Z" fill="#3F3D56"/>
<path d="M252.429 142.848H246.039V150.12H252.429V142.848Z" fill="#00e3c2"/>
<path d="M256.309 145.964H248.549V137.134H256.309V145.964ZM248.887 145.58H255.972V137.518H248.887V145.58Z" fill="#3F3D56"/>
<path d="M241.285 60.245H240.742V43.321C240.742 42.0347 240.519 40.761 240.087 39.5726C239.654 38.3842 239.02 37.3044 238.221 36.3948C237.421 35.4852 236.473 34.7637 235.428 34.2715C234.384 33.7792 233.265 33.5259 232.134 33.5259H200.625C199.495 33.5259 198.376 33.7792 197.331 34.2715C196.287 34.7637 195.338 35.4852 194.539 36.3948C193.74 37.3044 193.106 38.3842 192.673 39.5726C192.24 40.761 192.018 42.0347 192.018 43.321V136.167C192.018 137.454 192.24 138.727 192.673 139.916C193.106 141.104 193.74 142.184 194.539 143.093C195.338 144.003 196.287 144.724 197.331 145.217C198.376 145.709 199.495 145.962 200.625 145.962H232.134C233.265 145.962 234.384 145.709 235.428 145.217C236.473 144.724 237.421 144.003 238.221 143.093C239.02 142.184 239.654 141.104 240.087 139.916C240.519 138.727 240.742 137.454 240.742 136.167V72.2917H241.285V60.245Z" fill="#3F3D56"/>
<path d="M238.909 43.8966V136.607C238.909 138.547 238.232 140.408 237.027 141.78C235.821 143.152 234.187 143.923 232.482 143.924H200.821C199.116 143.923 197.481 143.152 196.276 141.78C195.07 140.408 194.393 138.547 194.394 136.607V43.8966C194.394 41.9569 195.071 40.0967 196.276 38.7252C197.482 37.3536 199.116 36.583 200.821 36.5828H204.662C204.473 37.1104 204.401 37.6829 204.452 38.2497C204.503 38.8166 204.676 39.3604 204.955 39.8333C205.235 40.3062 205.612 40.6936 206.054 40.9615C206.496 41.2294 206.989 41.3695 207.49 41.3695H225.541C226.042 41.3695 226.535 41.2294 226.977 40.9615C227.419 40.6936 227.796 40.3062 228.075 39.8333C228.355 39.3604 228.528 38.8166 228.579 38.2497C228.63 37.6829 228.558 37.1104 228.369 36.5828H232.482C234.186 36.583 235.821 37.3536 237.026 38.7252C238.231 40.0967 238.909 41.9569 238.909 43.8966Z" fill="#00e3c2"/>
<path d="M221.367 97.7124H211.935V100.893H221.367V97.7124Z" fill="#3F3D56"/>
<path d="M232.769 72.9497H200.533V74.3128H232.769V72.9497Z" fill="#3F3D56"/>
<path d="M232.769 77.2661H200.533V78.6292H232.769V77.2661Z" fill="#3F3D56"/>
<path d="M232.769 81.5825H200.533V82.9456H232.769V81.5825Z" fill="#3F3D56"/>
<path d="M232.769 85.8989H200.533V87.262H232.769V85.8989Z" fill="#3F3D56"/>
<path d="M232.769 90.2156H200.533V91.5786H232.769V90.2156Z" fill="#3F3D56"/>
<path d="M217.777 54.8479H212.187V61.209H217.777V54.8479Z" fill="#F2F2F2"/>
<path d="M214.327 56.4387V64.1629H221.115V56.4387H214.327ZM220.821 63.8279H214.622V56.7738H220.821V63.8279Z" fill="#3F3D56"/>
<path opacity="0.1" d="M238.909 126.707V136.607C238.909 138.547 238.232 140.408 237.027 141.78C235.821 143.152 234.187 143.923 232.482 143.924H200.821C199.116 143.923 197.481 143.152 196.276 141.78C195.07 140.408 194.393 138.547 194.394 136.607V86.686L221.068 110.666L221.524 111.077L226.486 115.536L226.949 115.954L238.909 126.707Z" fill="#293339"/>
<path d="M213.912 140.919C219.442 140.919 223.925 135.818 223.925 129.526C223.925 123.233 219.442 118.132 213.912 118.132C208.383 118.132 203.9 123.233 203.9 129.526C203.9 135.818 208.383 140.919 213.912 140.919Z" fill="#F2F2F2"/>
<path d="M73.0747 170C69.1474 170 65.3084 168.675 62.043 166.192C58.7776 163.709 56.2325 160.18 54.7296 156.051C53.2267 151.922 52.8335 147.379 53.5997 142.996C54.3659 138.613 56.257 134.586 59.034 131.426C61.811 128.266 65.3491 126.114 69.2009 125.242C73.0527 124.37 77.0452 124.818 80.6735 126.528C84.3018 128.238 87.403 131.135 89.5848 134.85C91.7667 138.566 92.9312 142.935 92.9312 147.404C92.9253 153.395 90.8314 159.138 87.1088 163.374C83.3863 167.61 78.3392 169.993 73.0747 170ZM73.0747 125.328C69.2377 125.328 65.4869 126.622 62.2966 129.048C59.1063 131.474 56.6197 134.922 55.1514 138.956C53.683 142.99 53.2988 147.429 54.0474 151.711C54.7959 155.993 56.6436 159.927 59.3568 163.014C62.0699 166.102 65.5267 168.204 69.2899 169.056C73.0532 169.908 76.9539 169.471 80.4988 167.8C84.0437 166.129 87.0736 163.3 89.2053 159.669C91.337 156.039 92.4748 151.77 92.4748 147.404C92.469 141.551 90.4232 135.94 86.7862 131.801C83.1492 127.662 78.2181 125.334 73.0747 125.328Z" fill="#3F3D56"/>
<path d="M216.863 138.314C214.381 138.314 211.954 137.476 209.889 135.906C207.825 134.337 206.216 132.106 205.266 129.495C204.316 126.885 204.067 124.013 204.552 121.242C205.036 118.471 206.232 115.926 207.987 113.928C209.743 111.93 211.979 110.57 214.415 110.019C216.85 109.467 219.374 109.75 221.667 110.832C223.961 111.913 225.922 113.744 227.301 116.093C228.68 118.442 229.416 121.204 229.416 124.029C229.413 127.816 228.089 131.447 225.736 134.125C223.382 136.803 220.192 138.309 216.863 138.314ZM216.863 110.264C214.471 110.264 212.132 111.071 210.143 112.583C208.154 114.096 206.603 116.246 205.688 118.761C204.772 121.276 204.533 124.044 204.999 126.714C205.466 129.385 206.618 131.837 208.31 133.762C210.002 135.688 212.157 136.999 214.504 137.53C216.85 138.061 219.282 137.788 221.493 136.746C223.703 135.705 225.592 133.94 226.921 131.677C228.251 129.413 228.96 126.751 228.96 124.029C228.956 120.379 227.681 116.881 225.413 114.3C223.145 111.719 220.071 110.268 216.863 110.264Z" fill="#3F3D56"/>
</g>
<defs>
<clipPath id="clip0">
<rect width="260" height="170" fill="white"/>
</clipPath>
</defs>
</svg>
