<svg xmlns="http://www.w3.org/2000/svg" viewBox="0 0 124.7 70.37"><defs><style>.cls-1{fill:#fff;}.cls-2{fill:#00a99d;}</style></defs><g id="Capa_2" data-name="Capa 2"><g id="Capa_1-2" data-name="Capa 1"><path class="cls-1" d="M0,58V32.79H13.68a6.44,6.44,0,0,1,3.35.85,6.21,6.21,0,0,1,2.27,2.28,6.47,6.47,0,0,1,.83,3.28,5.88,5.88,0,0,1-.53,2.43A6.1,6.1,0,0,1,15.91,45a6,6,0,0,1,2.56,1.29,7,7,0,0,1,1.71,2.24,6.31,6.31,0,0,1,.63,2.8A6.78,6.78,0,0,1,20,54.68a6.53,6.53,0,0,1-2.4,2.41,7.08,7.08,0,0,1-3.65.9ZM3.46,43.7h9a4.36,4.36,0,0,0,2.22-.56,3.94,3.94,0,0,0,1.47-1.48,3.82,3.82,0,0,0,0-3.85,3.89,3.89,0,0,0-1.4-1.42,4,4,0,0,0-2.09-.54H3.46Zm0,11.23H13.1a4.19,4.19,0,0,0,2.27-.59,4.25,4.25,0,0,0,1.46-1.55,4.18,4.18,0,0,0,.52-2,3.93,3.93,0,0,0-.54-2A4.31,4.31,0,0,0,13,46.61H3.46Z"/><path class="cls-1" d="M24.84,58V44.85a4.81,4.81,0,0,1,5.22-5.22h3.78v2.84H30.67a2.44,2.44,0,0,0-1.85.69,2.63,2.63,0,0,0-.67,1.91V58Z"/><path class="cls-1" d="M44.53,58.42a8.16,8.16,0,0,1-4.61-1.28,8.34,8.34,0,0,1-3-3.47,11.1,11.1,0,0,1-1-4.86A10.37,10.37,0,0,1,37,43.93a8.67,8.67,0,0,1,3.32-3.45,9.9,9.9,0,0,1,5.18-1.28,9.5,9.5,0,0,1,5,1.26,8.57,8.57,0,0,1,3.23,3.42A10.29,10.29,0,0,1,54.9,48.7V58H51.55V54.25h-.07a8.6,8.6,0,0,1-1.46,2,7.16,7.16,0,0,1-2.28,1.57A7.79,7.79,0,0,1,44.53,58.42Zm.87-2.84a5.84,5.84,0,0,0,3.18-.88,5.92,5.92,0,0,0,2.16-2.45,8.28,8.28,0,0,0,0-6.93A5.68,5.68,0,0,0,45.47,42,5.77,5.77,0,0,0,40,45.37a8.52,8.52,0,0,0,0,6.88,5.8,5.8,0,0,0,2.08,2.43A5.93,5.93,0,0,0,45.4,55.58Z"/><path class="cls-1" d="M60.16,58V39.63H63.5V58Z"/><path class="cls-1" d="M68.72,58V47.37a8.19,8.19,0,0,1,1.1-4.28,7.64,7.64,0,0,1,3-2.87,10.17,10.17,0,0,1,8.88,0,7.66,7.66,0,0,1,3,2.87,8.19,8.19,0,0,1,1.1,4.28V58H82.55V47.41a5.42,5.42,0,0,0-.74-2.87,5.06,5.06,0,0,0-1.94-1.85A5.43,5.43,0,0,0,77.29,42a5.36,5.36,0,0,0-2.57.65,5.09,5.09,0,0,0-2,1.85A5.42,5.42,0,0,0,72,47.41V58Z"/><path class="cls-1" d="M90.86,58V55.15h8.79a2.87,2.87,0,0,0,1.49-.38,2.53,2.53,0,0,0,1-1,2.81,2.81,0,0,0,.32-1.3,2.59,2.59,0,0,0-.29-1.2,2.06,2.06,0,0,0-.88-.9A2.79,2.79,0,0,0,99.83,50H96.12A7.36,7.36,0,0,1,93,49.44,4.68,4.68,0,0,1,91,47.69a5.46,5.46,0,0,1,0-5.4,5.3,5.3,0,0,1,1.9-1.92,5.36,5.36,0,0,1,2.81-.74h8.46v2.84H96a2.3,2.3,0,0,0-1.76.69,2.27,2.27,0,0,0-.65,1.62,2.14,2.14,0,0,0,.67,1.56,2.52,2.52,0,0,0,1.89.67h3.53a7.85,7.85,0,0,1,3.33.63,4.56,4.56,0,0,1,2,1.82,5.6,5.6,0,0,1,.7,2.91,5.52,5.52,0,0,1-.72,2.76,5.66,5.66,0,0,1-2,2.07,5.49,5.49,0,0,1-3,.79Z"/><path class="cls-1" d="M109.83,58V55.15h8.79a2.84,2.84,0,0,0,1.49-.38,2.53,2.53,0,0,0,1-1,2.81,2.81,0,0,0,.32-1.3,2.59,2.59,0,0,0-.29-1.2,2.06,2.06,0,0,0-.88-.9A2.77,2.77,0,0,0,118.8,50h-3.71a7.39,7.39,0,0,1-3.08-.59A4.68,4.68,0,0,1,110,47.69a5.46,5.46,0,0,1,0-5.4,5.3,5.3,0,0,1,1.9-1.92,5.38,5.38,0,0,1,2.81-.74h8.46v2.84H115a2.32,2.32,0,0,0-1.77.69,2.26,2.26,0,0,0-.64,1.62,2.13,2.13,0,0,0,.66,1.56,2.54,2.54,0,0,0,1.89.67h3.53a7.85,7.85,0,0,1,3.33.63,4.56,4.56,0,0,1,2,1.82,5.6,5.6,0,0,1,.7,2.91,5.52,5.52,0,0,1-.72,2.76,5.66,5.66,0,0,1-2,2.07,5.48,5.48,0,0,1-3,.79Z"/><circle class="cls-2" cx="61.84" cy="13.78" r="5.22" transform="translate(8.37 47.76) rotate(-45)"/><path class="cls-2" d="M61.84,0a13.72,13.72,0,0,0-5.22,1V7a8.57,8.57,0,1,1-3.35,6.79V3a13.78,13.78,0,1,0,8.57-3Z"/><path class="cls-1" d="M21.87,68.54H18.15l-.77,1.75h-1l3.17-7h1l3.18,7H22.64Zm-.35-.8L20,64.31,18.5,67.74Z"/><path class="cls-1" d="M29.48,66.75h1v2.73a3.64,3.64,0,0,1-1.21.66,4.62,4.62,0,0,1-1.44.23,3.89,3.89,0,0,1-1.91-.47,3.37,3.37,0,0,1-1.34-1.28,3.52,3.52,0,0,1-.48-1.83A3.58,3.58,0,0,1,24.54,65a3.37,3.37,0,0,1,1.34-1.28,4,4,0,0,1,1.93-.46,4.11,4.11,0,0,1,1.52.27,3.32,3.32,0,0,1,1.17.81l-.62.62a2.83,2.83,0,0,0-2-.81,2.93,2.93,0,0,0-1.43.34,2.54,2.54,0,0,0-1,1,2.65,2.65,0,0,0-.36,1.39,2.63,2.63,0,0,0,1.35,2.34,2.93,2.93,0,0,0,1.42.35A3,3,0,0,0,29.48,69Z"/><path class="cls-1" d="M37.42,69.42v.87H32.34v-7h4.95v.87H33.34v2.15h3.51v.85H33.34v2.26Z"/><path class="cls-1" d="M45.07,63.29v7h-.82L40,65.07v5.22H39v-7h.83l4.2,5.22V63.29Z"/><path class="cls-1" d="M48.4,69.9a3.38,3.38,0,0,1-1.32-1.28,3.43,3.43,0,0,1-.48-1.83A3.49,3.49,0,0,1,47.08,65a3.41,3.41,0,0,1,1.33-1.28,3.87,3.87,0,0,1,1.9-.46,4.08,4.08,0,0,1,1.5.27A3.07,3.07,0,0,1,53,64.3l-.64.63a2.64,2.64,0,0,0-2-.83,2.89,2.89,0,0,0-1.41.35,2.54,2.54,0,0,0-1,1,2.67,2.67,0,0,0-.35,1.38A2.64,2.64,0,0,0,48,68.16a2.56,2.56,0,0,0,1,1,2.89,2.89,0,0,0,1.41.35,2.62,2.62,0,0,0,2-.84l.64.63a3,3,0,0,1-1.16.82,4.11,4.11,0,0,1-3.4-.19Z"/><path class="cls-1" d="M54.39,63.29h1v7h-1Z"/><path class="cls-1" d="M62,68.54H58.24l-.78,1.75h-1l3.17-7h1l3.18,7H62.73Zm-.35-.8L60.1,64.31l-1.52,3.43Z"/><path class="cls-1" d="M67.5,63.29h3a4.25,4.25,0,0,1,2,.44A3.19,3.19,0,0,1,73.76,65a3.47,3.47,0,0,1,.48,1.83,3.43,3.43,0,0,1-.48,1.82,3.15,3.15,0,0,1-1.34,1.24,4.25,4.25,0,0,1-2,.44h-3Zm2.9,6.13a3.24,3.24,0,0,0,1.49-.33,2.34,2.34,0,0,0,1-.93,2.57,2.57,0,0,0,.36-1.37,2.63,2.63,0,0,0-.36-1.38,2.38,2.38,0,0,0-1-.92,3.24,3.24,0,0,0-1.49-.33H68.5v5.26Z"/><path class="cls-1" d="M75.76,63.29h1v7h-1Z"/><path class="cls-1" d="M83.72,66.75h1v2.73a3.64,3.64,0,0,1-1.21.66,4.62,4.62,0,0,1-1.44.23,3.89,3.89,0,0,1-1.91-.47,3.37,3.37,0,0,1-1.34-1.28,3.52,3.52,0,0,1-.48-1.83A3.58,3.58,0,0,1,78.78,65a3.37,3.37,0,0,1,1.34-1.28,4,4,0,0,1,1.93-.46,4.11,4.11,0,0,1,1.52.27,3.23,3.23,0,0,1,1.17.81l-.62.62a2.83,2.83,0,0,0-2-.81,2.93,2.93,0,0,0-1.43.34,2.54,2.54,0,0,0-1,1,2.74,2.74,0,0,0-.36,1.39,2.64,2.64,0,0,0,.36,1.37,2.56,2.56,0,0,0,1,1,2.94,2.94,0,0,0,1.43.35A3,3,0,0,0,83.72,69Z"/><path class="cls-1" d="M86.58,63.29h1v7h-1Z"/><path class="cls-1" d="M91.08,64.16H88.67v-.87h5.79v.87h-2.4v6.13h-1Z"/><path class="cls-1" d="M99.67,68.54H96l-.78,1.75h-1l3.17-7h1l3.18,7h-1Zm-.35-.8-1.51-3.43-1.52,3.43Z"/><path class="cls-1" d="M102.52,63.29h1v6.13h3.79v.87h-4.79Z"/></g></g></svg>