<svg width="179" height="117" viewBox="0 0 260 170" fill="none" xmlns="http://www.w3.org/2000/svg">
<g clip-path="url(#clip0)">
<path d="M258.303 140.406H129.672C129.222 140.406 128.791 140.232 128.473 139.924C128.154 139.616 127.975 139.198 127.975 138.762V1.6441C127.975 1.20821 128.154 0.790317 128.473 0.482097C128.791 0.173876 129.222 0.000498673 129.672 0H258.303C258.753 0.000498673 259.184 0.173876 259.502 0.482097C259.821 0.790317 259.999 1.20821 260 1.6441V138.762C259.999 139.198 259.821 139.616 259.502 139.924C259.184 140.232 258.753 140.406 258.303 140.406ZM129.672 0.65764C129.402 0.657926 129.143 0.761948 128.952 0.946883C128.761 1.13182 128.654 1.38256 128.654 1.6441V138.762C128.654 139.024 128.761 139.274 128.952 139.459C129.143 139.644 129.402 139.748 129.672 139.749H258.303C258.573 139.748 258.832 139.644 259.023 139.459C259.214 139.274 259.321 139.024 259.321 138.762V1.6441C259.321 1.38256 259.214 1.13182 259.023 0.946883C258.832 0.761948 258.573 0.657926 258.303 0.65764H129.672Z" fill="#3F3D56"/>
<path d="M185.163 52.2825H153.26C152.81 52.282 152.379 52.1086 152.061 51.8004C151.742 51.4922 151.564 51.0743 151.563 50.6384V19.7293C151.564 19.2934 151.742 18.8755 152.061 18.5673C152.379 18.2591 152.81 18.0857 153.26 18.0852H185.163C185.613 18.0857 186.044 18.2591 186.363 18.5673C186.681 18.8755 186.86 19.2934 186.86 19.7293V50.6384C186.86 51.0743 186.681 51.4922 186.363 51.8004C186.044 52.1086 185.613 52.282 185.163 52.2825ZM153.26 18.7428C152.99 18.7431 152.731 18.8472 152.54 19.0321C152.349 19.217 152.242 19.4678 152.242 19.7293V50.6384C152.242 50.8999 152.349 51.1507 152.54 51.3356C152.731 51.5205 152.99 51.6246 153.26 51.6249H185.163C185.433 51.6246 185.692 51.5205 185.883 51.3356C186.074 51.1507 186.181 50.8999 186.181 50.6384V19.7293C186.181 19.4678 186.074 19.217 185.883 19.0321C185.692 18.8472 185.433 18.7431 185.163 18.7428H153.26Z" fill="#F2F2F2"/>
<path d="M175.999 56.0638H144.096C143.691 56.0633 143.303 55.9073 143.017 55.6299C142.731 55.3525 142.569 54.9764 142.569 54.5841V23.675C142.569 23.2827 142.731 22.9066 143.017 22.6292C143.303 22.3518 143.691 22.1958 144.096 22.1953H175.999C176.404 22.1958 176.793 22.3518 177.079 22.6292C177.365 22.9066 177.526 23.2827 177.527 23.675V54.5841C177.526 54.9764 177.365 55.3525 177.079 55.6299C176.793 55.9073 176.404 56.0633 175.999 56.0638Z" fill="#00e3c2"/>
<path d="M243.879 71.1896H144.096C143.691 71.1896 143.303 71.0337 143.016 70.7562C142.73 70.4787 142.569 70.1023 142.569 69.7099C142.569 69.3175 142.73 68.9411 143.016 68.6636C143.303 68.3861 143.691 68.2302 144.096 68.2302H243.879C244.284 68.2302 244.672 68.3861 244.959 68.6636C245.245 68.9411 245.406 69.3175 245.406 69.7099C245.406 70.1023 245.245 70.4787 244.959 70.7562C244.672 71.0337 244.284 71.1896 243.879 71.1896Z" fill="#CCCCCC"/>
<path d="M219.782 81.383H144.096C143.691 81.383 143.303 81.2271 143.016 80.9496C142.73 80.6721 142.569 80.2957 142.569 79.9033C142.569 79.5108 142.73 79.1345 143.016 78.857C143.303 78.5795 143.691 78.4236 144.096 78.4236H219.782C220.187 78.4236 220.575 78.5795 220.862 78.857C221.148 79.1345 221.309 79.5108 221.309 79.9033C221.309 80.2957 221.148 80.6721 220.862 80.9496C220.575 81.2271 220.187 81.383 219.782 81.383Z" fill="#CCCCCC"/>
<path d="M243.539 33.704H199.418C199.013 33.704 198.624 33.5481 198.338 33.2706C198.051 32.9931 197.891 32.6168 197.891 32.2243C197.891 31.8319 198.051 31.4555 198.338 31.178C198.624 30.9005 199.013 30.7446 199.418 30.7446H243.539C243.944 30.7446 244.333 30.9005 244.619 31.178C244.906 31.4555 245.067 31.8319 245.067 32.2243C245.067 32.6168 244.906 32.9931 244.619 33.2706C244.333 33.5481 243.944 33.704 243.539 33.704Z" fill="#CCCCCC"/>
<path d="M232.528 43.8974H199.418C199.013 43.8974 198.624 43.7415 198.338 43.464C198.051 43.1865 197.891 42.8101 197.891 42.4177C197.891 42.0252 198.051 41.6489 198.338 41.3714C198.624 41.0939 199.013 40.938 199.418 40.938H232.528C232.933 40.938 233.322 41.0939 233.608 41.3714C233.894 41.6489 234.055 42.0252 234.055 42.4177C234.055 42.8101 233.894 43.1865 233.608 43.464C233.322 43.7415 232.933 43.8974 232.528 43.8974Z" fill="#CCCCCC"/>
<path d="M243.879 91.5763H144.096C143.691 91.5763 143.303 91.4204 143.016 91.1429C142.73 90.8654 142.569 90.4891 142.569 90.0966C142.569 89.7042 142.73 89.3278 143.016 89.0503C143.303 88.7728 143.691 88.6169 144.096 88.6169H243.879C244.284 88.6169 244.672 88.7728 244.959 89.0503C245.245 89.3278 245.406 89.7042 245.406 90.0966C245.406 90.4891 245.245 90.8654 244.959 91.1429C244.672 91.4204 244.284 91.5763 243.879 91.5763Z" fill="#CCCCCC"/>
<path d="M219.782 101.77H144.096C143.691 101.77 143.303 101.614 143.016 101.337C142.73 101.059 142.569 100.683 142.569 100.29C142.569 99.8978 142.73 99.5214 143.016 99.2439C143.303 98.9664 143.691 98.8105 144.096 98.8105H219.782C220.187 98.8105 220.575 98.9664 220.862 99.2439C221.148 99.5214 221.309 99.8978 221.309 100.29C221.309 100.683 221.148 101.059 220.862 101.337C220.575 101.614 220.187 101.77 219.782 101.77Z" fill="#CCCCCC"/>
<path d="M243.879 111.963H144.096C143.691 111.963 143.303 111.807 143.016 111.53C142.73 111.252 142.569 110.876 142.569 110.484C142.569 110.091 142.73 109.715 143.016 109.437C143.303 109.16 143.691 109.004 144.096 109.004H243.879C244.284 109.004 244.672 109.16 244.959 109.437C245.245 109.715 245.406 110.091 245.406 110.484C245.406 110.876 245.245 111.252 244.959 111.53C244.672 111.807 244.284 111.963 243.879 111.963Z" fill="#CCCCCC"/>
<path d="M243.879 122.157H144.096C143.691 122.157 143.303 122.001 143.016 121.723C142.73 121.446 142.569 121.069 142.569 120.677C142.569 120.285 142.73 119.908 143.016 119.631C143.303 119.353 143.691 119.197 144.096 119.197H243.879C244.284 119.197 244.672 119.353 244.959 119.631C245.245 119.908 245.406 120.285 245.406 120.677C245.406 121.069 245.245 121.446 244.959 121.723C244.672 122.001 244.284 122.157 243.879 122.157Z" fill="#CCCCCC"/>
<path d="M163.418 127.684H90.4477C89.9978 127.684 89.5664 127.51 89.2483 127.202C88.9302 126.894 88.7512 126.476 88.7507 126.04V82.3072C88.7512 81.8713 88.9302 81.4534 89.2483 81.1452C89.5664 80.837 89.9978 80.6636 90.4477 80.6631H163.418C163.868 80.6636 164.299 80.837 164.617 81.1452C164.935 81.4534 165.114 81.8713 165.115 82.3072V126.04C165.114 126.476 164.935 126.894 164.617 127.202C164.299 127.51 163.868 127.684 163.418 127.684Z" fill="white"/>
<path d="M163.418 127.684H90.4477C89.9978 127.684 89.5664 127.51 89.2483 127.202C88.9302 126.894 88.7512 126.476 88.7507 126.04V82.3072C88.7512 81.8713 88.9302 81.4534 89.2483 81.1452C89.5664 80.837 89.9978 80.6636 90.4477 80.6631H163.418C163.868 80.6636 164.299 80.837 164.617 81.1452C164.935 81.4534 165.114 81.8713 165.115 82.3072V126.04C165.114 126.476 164.935 126.894 164.617 127.202C164.299 127.51 163.868 127.684 163.418 127.684ZM90.4477 81.3207C90.1777 81.321 89.9189 81.425 89.728 81.61C89.5371 81.7949 89.4298 82.0456 89.4295 82.3072V126.04C89.4298 126.302 89.5371 126.553 89.728 126.737C89.9189 126.922 90.1777 127.026 90.4477 127.027H163.418C163.688 127.026 163.947 126.922 164.137 126.737C164.328 126.553 164.436 126.302 164.436 126.04V82.3072C164.436 82.0456 164.328 81.7949 164.137 81.61C163.947 81.425 163.688 81.321 163.418 81.3207H90.4477Z" fill="#3F3D56"/>
<path d="M148.993 100.557H104.872C104.467 100.557 104.078 100.401 103.792 100.123C103.506 99.8459 103.345 99.4695 103.345 99.0771C103.345 98.6847 103.506 98.3083 103.792 98.0308C104.078 97.7533 104.467 97.5974 104.872 97.5974H148.993C149.399 97.5974 149.787 97.7533 150.073 98.0308C150.36 98.3083 150.521 98.6847 150.521 99.0771C150.521 99.4695 150.36 99.8459 150.073 100.123C149.787 100.401 149.399 100.557 148.993 100.557Z" fill="#CCCCCC"/>
<path d="M148.993 110.75H104.872C104.467 110.75 104.078 110.594 103.792 110.317C103.506 110.039 103.345 109.663 103.345 109.27C103.345 108.878 103.506 108.502 103.792 108.224C104.078 107.947 104.467 107.791 104.872 107.791H148.993C149.399 107.791 149.787 107.947 150.073 108.224C150.36 108.502 150.521 108.878 150.521 109.27C150.521 109.663 150.36 110.039 150.073 110.317C149.787 110.594 149.399 110.75 148.993 110.75Z" fill="#CCCCCC"/>
<path d="M78.1748 166.018H82.3358L84.3151 150.469L78.1741 150.469L78.1748 166.018Z" fill="#A0616A"/>
<path d="M77.1134 164.702L85.3078 164.702H85.3081C86.6931 164.702 88.0213 165.235 89.0006 166.184C89.9799 167.133 90.5301 168.419 90.5302 169.761V169.926L77.1136 169.926L77.1134 164.702Z" fill="#2F2E41"/>
<path d="M45.7764 164.273L49.8905 164.876L54.247 149.788L48.8537 148.899L45.7764 164.273Z" fill="#A0616A"/>
<path d="M44.9299 162.818L53.0323 164.005L53.0326 164.005C54.402 164.206 55.633 164.925 56.4549 166.005C57.2769 167.085 57.6223 168.437 57.4154 169.764L57.39 169.926L44.1241 167.984L44.9299 162.818Z" fill="#2F2E41"/>
<path d="M58.6056 88.96L63.2256 90.1327L62.9182 97.3896L62.8802 110.602C63.3353 110.907 63.6842 111.339 63.8806 111.84C64.077 112.341 64.1118 112.889 63.9802 113.409C63.8486 113.93 63.557 114.4 63.1438 114.757C62.7306 115.114 62.2154 115.34 61.6662 115.407C61.1171 115.474 60.56 115.378 60.0686 115.131C59.5772 114.885 59.1746 114.499 58.9141 114.026C58.6536 113.553 58.5475 113.015 58.6098 112.482C58.6721 111.949 58.8999 111.447 59.2631 111.042L57.8434 97.7815L58.6056 88.96Z" fill="#A0616A"/>
<path d="M57.8014 80.6481C57.8269 79.9468 58.0603 79.2674 58.4737 78.6912C58.8872 78.1149 59.4631 77.6663 60.1328 77.3987C60.7596 77.127 61.4547 77.0385 62.1327 77.1442C62.8107 77.2498 63.4421 77.545 63.9494 77.9934C64.314 78.3091 64.6032 78.698 64.7967 79.133C64.9902 79.568 65.0835 80.0387 65.07 80.5123C65.0822 84.7635 64.0916 90.96 64.0815 91.022L64.0657 91.1206L57.3129 93.3237L57.8014 80.6481Z" fill="#00e3c2"/>
<path d="M69.8758 92.7155L80.2045 90.1252L84.979 105.704L85.1487 163.741L77.2503 163.693L73.9486 116.719L52.906 160.124L44.4212 159.137L62.9182 112.609C62.9182 112.609 61.9 104.389 65.1243 100.278L64.4455 96.0037L69.8758 92.7155Z" fill="#2F2E41"/>
<path d="M62.9114 96.5917C62.767 96.4216 62.6621 96.2234 62.6038 96.0106C62.5456 95.7978 62.5353 95.5753 62.5737 95.3582L57.8625 81.6647C57.6425 81.0245 57.6191 80.3363 57.7952 79.6836C57.9713 79.0308 58.3392 78.4416 58.8542 77.9876L60.8995 76.1865L62.2855 70.8152L70.2516 72.7017L69.5952 75.2453L73.2005 74.6104L80.7941 90.9962L64.9214 97.143L64.1397 97.1548C63.9046 97.1553 63.6724 97.1049 63.46 97.0075C63.2475 96.9101 63.0601 96.768 62.9114 96.5917Z" fill="#00e3c2"/>
<path d="M73.9681 85.0298L78.5198 83.6284L82.2638 89.9207L89.5213 101.107C90.0743 101.129 90.6073 101.313 91.0499 101.635C91.4924 101.957 91.8237 102.402 91.9998 102.91C92.176 103.418 92.1887 103.966 92.0363 104.482C91.8839 104.997 91.5736 105.456 91.1464 105.797C90.7192 106.137 90.1953 106.345 89.6439 106.391C89.0925 106.437 88.5397 106.32 88.0585 106.055C87.5774 105.79 87.1906 105.39 86.9493 104.907C86.708 104.425 86.6236 103.882 86.7073 103.352L78.191 92.8801L73.9681 85.0298Z" fill="#A0616A"/>
<path d="M68.7025 78.421C68.3371 77.8151 68.1596 77.1201 68.1911 76.419C68.2226 75.718 68.4618 75.0406 68.8802 74.4677C69.2602 73.9136 69.7988 73.479 70.4301 73.2172C71.0613 72.9554 71.7577 72.8778 72.4339 72.9938C72.9162 73.0718 73.3751 73.2507 73.7787 73.5181C74.1823 73.7855 74.5208 74.135 74.7706 74.5422C77.1263 78.1287 79.7079 83.8789 79.7337 83.9364L79.7746 84.0279L75.283 89.387L68.7025 78.421Z" fill="#00e3c2"/>
<path d="M68.1793 69.8158C71.675 69.8158 74.5087 67.0703 74.5087 63.6836C74.5087 60.297 71.675 57.5515 68.1793 57.5515C64.6837 57.5515 61.85 60.297 61.85 63.6836C61.85 67.0703 64.6837 69.8158 68.1793 69.8158Z" fill="#A0616A"/>
<path d="M56.994 61.0968C60.3611 61.0968 63.0908 58.4523 63.0908 55.19C63.0908 51.9278 60.3611 49.2832 56.994 49.2832C53.6268 49.2832 50.8972 51.9278 50.8972 55.19C50.8972 58.4523 53.6268 61.0968 56.994 61.0968Z" fill="#2F2E41"/>
<path d="M51.7352 60.0813C52.5243 60.6338 53.4385 60.9953 54.4014 61.1354C55.3642 61.2754 56.3477 61.1901 57.2695 60.8864C58.1913 60.5827 59.0247 60.0696 59.6999 59.3899C60.375 58.7102 60.8723 57.8838 61.1502 56.9797C61.0451 57.7899 60.7677 58.5702 60.3356 59.2713C59.9035 59.9723 59.326 60.579 58.6397 61.053C57.9533 61.5269 57.173 61.8579 56.348 62.0249C55.523 62.192 54.6712 62.1915 53.8464 62.0235C53.0216 61.8555 52.2417 61.5237 51.5559 61.0489C50.8702 60.5742 50.2935 59.9668 49.8622 59.2652C49.431 58.5637 49.1545 57.7831 49.0504 56.9728C48.9462 56.1624 49.0166 55.34 49.2571 54.5574C49.1205 55.6088 49.2785 56.6765 49.7145 57.6484C50.1505 58.6204 50.8485 59.4607 51.7352 60.0813Z" fill="#2F2E41"/>
<path d="M75.7958 60.0879C74.7315 58.2418 74.3242 57.4706 72.9519 56.348C71.7383 55.3552 70.2456 55.0637 69.0416 56.0044C67.6172 55.4082 66.0324 55.273 64.5225 55.6189C63.0125 55.9648 61.658 56.7734 60.6602 57.9245C59.6623 59.0756 59.0744 60.5079 58.9836 62.0086C58.8929 63.5092 59.3042 64.9982 60.1564 66.2544C61.0087 67.5105 62.2565 68.4668 63.7144 68.9812C65.1723 69.4956 66.7626 69.5406 68.249 69.1096C69.7355 68.6786 71.0388 67.7946 71.9653 66.5888C72.8919 65.3831 73.3923 63.9199 73.3922 62.4166C73.3911 62.1527 73.3747 61.889 73.343 61.6268C74.3896 61.4844 74.7492 60.2303 75.7958 60.0879Z" fill="#2F2E41"/>
<path d="M129.649 170H0.339392C0.249379 170 0.163052 169.965 0.0994027 169.904C0.0357536 169.842 -3.8147e-06 169.758 -3.8147e-06 169.671C-3.8147e-06 169.584 0.0357536 169.5 0.0994027 169.439C0.163052 169.377 0.249379 169.342 0.339392 169.342H129.649C129.739 169.342 129.826 169.377 129.889 169.439C129.953 169.5 129.989 169.584 129.989 169.671C129.989 169.758 129.953 169.842 129.889 169.904C129.826 169.965 129.739 170 129.649 170Z" fill="#CCCCCC"/>
</g>
<defs>
<clipPath id="clip0">
<rect width="260" height="170" fill="white"/>
</clipPath>
</defs>
</svg>
