<svg width="84" height="72" viewBox="0 0 105 90" fill="none" xmlns="http://www.w3.org/2000/svg">
<g clip-path="url(#clip0)">
<path d="M105 0.0793457H0.148254V89.7688H105V0.0793457Z" fill="#E6E6E6"/>
<path d="M102.002 11.3287H3.14648V84.4629H102.002V11.3287Z" fill="white"/>
<path d="M104.955 0H0.103516V5.94952H104.955V0Z" fill="#00e3c2"/>
<path d="M3.41374 4.14436C3.86971 4.14436 4.23935 3.65067 4.23935 3.04166C4.23935 2.43266 3.86971 1.93896 3.41374 1.93896C2.95777 1.93896 2.58813 2.43266 2.58813 3.04166C2.58813 3.65067 2.95777 4.14436 3.41374 4.14436Z" fill="white"/>
<path d="M6.54753 4.14436C7.0035 4.14436 7.37314 3.65067 7.37314 3.04166C7.37314 2.43266 7.0035 1.93896 6.54753 1.93896C6.09156 1.93896 5.72192 2.43266 5.72192 3.04166C5.72192 3.65067 6.09156 4.14436 6.54753 4.14436Z" fill="white"/>
<path d="M9.68126 4.14436C10.1372 4.14436 10.5069 3.65067 10.5069 3.04166C10.5069 2.43266 10.1372 1.93896 9.68126 1.93896C9.22529 1.93896 8.85565 2.43266 8.85565 3.04166C8.85565 3.65067 9.22529 4.14436 9.68126 4.14436Z" fill="white"/>
<path d="M74.0302 18.1786H41.8461C41.7774 18.1665 41.7143 18.1215 41.6687 18.0519C41.623 17.9823 41.5978 17.8929 41.5978 17.8004C41.5978 17.7078 41.623 17.6184 41.6687 17.5488C41.7143 17.4792 41.7774 17.4342 41.8461 17.4221H74.0302C74.0989 17.4342 74.162 17.4792 74.2076 17.5488C74.2533 17.6184 74.2785 17.7078 74.2785 17.8004C74.2785 17.8929 74.2533 17.9823 74.2076 18.0519C74.162 18.1215 74.0989 18.1665 74.0302 18.1786V18.1786Z" fill="#CCCCCC"/>
<path d="M51.7298 22.3395H31.2671C31.1984 22.3274 31.1353 22.2824 31.0896 22.2128C31.0439 22.1432 31.0187 22.0538 31.0187 21.9613C31.0187 21.8687 31.0439 21.7793 31.0896 21.7097C31.1353 21.6401 31.1984 21.5951 31.2671 21.583H51.7298C51.7985 21.5951 51.8616 21.6401 51.9072 21.7097C51.9529 21.7793 51.9781 21.8687 51.9781 21.9613C51.9781 22.0538 51.9529 22.1432 51.9072 22.2128C51.8616 22.2824 51.7985 22.3274 51.7298 22.3395V22.3395Z" fill="#CCCCCC"/>
<path d="M74.0301 22.4151H53.5674C53.4987 22.403 53.4357 22.358 53.39 22.2884C53.3443 22.2188 53.3191 22.1294 53.3191 22.0368C53.3191 21.9443 53.3443 21.8549 53.39 21.7853C53.4357 21.7157 53.4987 21.6707 53.5674 21.6586H74.0301C74.0989 21.6707 74.1619 21.7157 74.2076 21.7853C74.2533 21.8549 74.2785 21.9443 74.2785 22.0368C74.2785 22.1294 74.2533 22.2188 74.2076 22.2884C74.1619 22.358 74.0989 22.403 74.0301 22.4151H74.0301Z" fill="#CCCCCC"/>
<path d="M51.7794 26.5004H31.3168C31.248 26.4883 31.185 26.4433 31.1393 26.3737C31.0936 26.3041 31.0684 26.2147 31.0684 26.1222C31.0684 26.0296 31.0936 25.9402 31.1393 25.8706C31.185 25.801 31.248 25.756 31.3168 25.7439H51.7794C51.8481 25.756 51.9112 25.801 51.9569 25.8706C52.0026 25.9402 52.0278 26.0296 52.0278 26.1222C52.0278 26.2147 52.0026 26.3041 51.9569 26.3737C51.9112 26.4433 51.8481 26.4883 51.7794 26.5004V26.5004Z" fill="#CCCCCC"/>
<path d="M51.8292 30.6613H31.3664C31.2977 30.6492 31.2347 30.6042 31.189 30.5346C31.1433 30.465 31.1181 30.3756 31.1181 30.283C31.1181 30.1905 31.1433 30.1011 31.189 30.0315C31.2347 29.9619 31.2977 29.9169 31.3664 29.9048H51.8292C51.8979 29.9169 51.9609 29.9619 52.0066 30.0315C52.0523 30.1011 52.0775 30.1905 52.0775 30.283C52.0775 30.3756 52.0523 30.465 52.0066 30.5346C51.9609 30.6042 51.8979 30.6492 51.8292 30.6613V30.6613Z" fill="#CCCCCC"/>
<path d="M61.1168 26.5004H55.2561C55.1874 26.4883 55.1244 26.4433 55.0787 26.3737C55.033 26.3041 55.0078 26.2147 55.0078 26.1222C55.0078 26.0296 55.033 25.9402 55.0787 25.8706C55.1244 25.801 55.1874 25.756 55.2561 25.7439H61.1168C61.1855 25.756 61.2486 25.801 61.2943 25.8706C61.34 25.9402 61.3652 26.0296 61.3652 26.1222C61.3652 26.2147 61.34 26.3041 61.2943 26.3737C61.2486 26.4433 61.1855 26.4883 61.1168 26.5004V26.5004Z" fill="#CCCCCC"/>
<path d="M61.1168 30.5856H55.2561C55.1874 30.5735 55.1244 30.5285 55.0787 30.4589C55.033 30.3893 55.0078 30.2999 55.0078 30.2074C55.0078 30.1148 55.033 30.0254 55.0787 29.9558C55.1244 29.8862 55.1874 29.8412 55.2561 29.8291H61.1168C61.1855 29.8412 61.2486 29.8862 61.2943 29.9558C61.34 30.0254 61.3652 30.1148 61.3652 30.2074C61.3652 30.2999 61.34 30.3893 61.2943 30.4589C61.2486 30.5285 61.1855 30.5735 61.1168 30.5856V30.5856Z" fill="#CCCCCC"/>
<path d="M70.9508 30.5856H65.0901C65.0214 30.5735 64.9584 30.5285 64.9127 30.4589C64.867 30.3893 64.8418 30.2999 64.8418 30.2074C64.8418 30.1148 64.867 30.0254 64.9127 29.9558C64.9584 29.8862 65.0214 29.8412 65.0901 29.8291H70.9508C71.0195 29.8412 71.0826 29.8862 71.1283 29.9558C71.1739 30.0254 71.1991 30.1148 71.1991 30.2074C71.1991 30.2999 71.1739 30.3893 71.1283 30.4589C71.0826 30.5285 71.0195 30.5735 70.9508 30.5856V30.5856Z" fill="#CCCCCC"/>
<path d="M36.9788 18.1786H31.1181C31.0494 18.1665 30.9863 18.1215 30.9406 18.0519C30.8949 17.9823 30.8698 17.8929 30.8698 17.8004C30.8698 17.7078 30.8949 17.6184 30.9406 17.5488C30.9863 17.4792 31.0494 17.4342 31.1181 17.4221H36.9788C37.0475 17.4342 37.1105 17.4792 37.1562 17.5488C37.2019 17.6184 37.2271 17.7078 37.2271 17.8004C37.2271 17.8929 37.2019 17.9823 37.1562 18.0519C37.1105 18.1215 37.0475 18.1665 36.9788 18.1786Z" fill="#CCCCCC"/>
<path d="M51.6553 65.8868H31.1926C31.1239 65.8747 31.0608 65.8297 31.0152 65.7601C30.9695 65.6905 30.9443 65.6011 30.9443 65.5085C30.9443 65.416 30.9695 65.3266 31.0152 65.257C31.0608 65.1874 31.1239 65.1423 31.1926 65.1302H51.6553C51.724 65.1423 51.7871 65.1874 51.8328 65.257C51.8785 65.3266 51.9037 65.416 51.9037 65.5085C51.9037 65.6011 51.8785 65.6905 51.8328 65.7601C51.7871 65.8297 51.724 65.8747 51.6553 65.8868H51.6553Z" fill="#CCCCCC"/>
<path d="M51.5559 74.2086H31.0932C31.0245 74.1965 30.9615 74.1514 30.9158 74.0818C30.8701 74.0122 30.8449 73.9228 30.8449 73.8303C30.8449 73.7377 30.8701 73.6483 30.9158 73.5787C30.9615 73.5092 31.0245 73.4641 31.0932 73.452H51.556C51.6247 73.4641 51.6877 73.5092 51.7334 73.5787C51.7791 73.6483 51.8043 73.7377 51.8043 73.8303C51.8043 73.9228 51.7791 74.0122 51.7334 74.0818C51.6877 74.1514 51.6247 74.1965 51.556 74.2086H51.5559Z" fill="#CCCCCC"/>
<path d="M51.6056 78.3694H31.1429C31.0742 78.3573 31.0112 78.3123 30.9655 78.2427C30.9198 78.1731 30.8946 78.0837 30.8946 77.9912C30.8946 77.8986 30.9198 77.8092 30.9655 77.7396C31.0112 77.67 31.0742 77.625 31.1429 77.6129H51.6056C51.6743 77.625 51.7374 77.67 51.7831 77.7396C51.8288 77.8092 51.854 77.8986 51.854 77.9912C51.854 78.0837 51.8288 78.1731 51.7831 78.2427C51.7374 78.3123 51.6743 78.3573 51.6056 78.3694H51.6056Z" fill="#CCCCCC"/>
<path d="M60.3469 74.2842H54.4863C54.4176 74.2721 54.3545 74.2271 54.3088 74.1575C54.2631 74.0879 54.2379 73.9985 54.2379 73.906C54.2379 73.8134 54.2631 73.724 54.3088 73.6544C54.3545 73.5848 54.4176 73.5398 54.4863 73.5277H60.3469C60.4156 73.5398 60.4787 73.5848 60.5244 73.6544C60.5701 73.724 60.5953 73.8134 60.5953 73.906C60.5953 73.9985 60.5701 74.0879 60.5244 74.1575C60.4787 74.2271 60.4156 74.2721 60.3469 74.2842V74.2842Z" fill="#CCCCCC"/>
<path d="M60.3469 78.3694H54.4863C54.4176 78.3573 54.3545 78.3123 54.3088 78.2427C54.2631 78.1731 54.2379 78.0837 54.2379 77.9912C54.2379 77.8986 54.2631 77.8092 54.3088 77.7396C54.3545 77.67 54.4176 77.625 54.4863 77.6129H60.3469C60.4156 77.625 60.4787 77.67 60.5244 77.7396C60.5701 77.8092 60.5953 77.8986 60.5953 77.9912C60.5953 78.0837 60.5701 78.1731 60.5244 78.2427C60.4787 78.3123 60.4156 78.3573 60.3469 78.3694V78.3694Z" fill="#CCCCCC"/>
<path d="M70.181 74.2842H64.3203C64.2516 74.2721 64.1885 74.2271 64.1428 74.1575C64.0971 74.0879 64.072 73.9985 64.072 73.906C64.072 73.8134 64.0971 73.724 64.1428 73.6544C64.1885 73.5848 64.2516 73.5398 64.3203 73.5277H70.181C70.2497 73.5398 70.3128 73.5848 70.3584 73.6544C70.4041 73.724 70.4293 73.8134 70.4293 73.906C70.4293 73.9985 70.4041 74.0879 70.3584 74.1575C70.3128 74.2271 70.2497 74.2721 70.181 74.2842V74.2842Z" fill="#CCCCCC"/>
<path d="M74.055 70.0477H41.8709C41.8022 70.0356 41.7392 69.9905 41.6935 69.9209C41.6478 69.8514 41.6226 69.762 41.6226 69.6694C41.6226 69.5768 41.6478 69.4875 41.6935 69.4179C41.7392 69.3483 41.8022 69.3032 41.8709 69.2911H74.055C74.1237 69.3032 74.1868 69.3483 74.2325 69.4179C74.2782 69.4875 74.3033 69.5768 74.3033 69.6694C74.3033 69.762 74.2782 69.8514 74.2325 69.9209C74.1868 69.9905 74.1237 70.0356 74.055 70.0477V70.0477Z" fill="#CCCCCC"/>
<path d="M37.0036 70.0477H31.1429C31.0742 70.0356 31.0112 69.9905 30.9655 69.9209C30.9198 69.8514 30.8946 69.762 30.8946 69.6694C30.8946 69.5768 30.9198 69.4875 30.9655 69.4179C31.0112 69.3483 31.0742 69.3032 31.1429 69.2911H37.0036C37.0723 69.3032 37.1354 69.3483 37.1811 69.4179C37.2268 69.4875 37.2519 69.5768 37.2519 69.6694C37.2519 69.762 37.2268 69.8514 37.1811 69.9209C37.1354 69.9905 37.0723 70.0356 37.0036 70.0477V70.0477Z" fill="#CCCCCC"/>
<path d="M46.7136 37.3824L38.7668 47.8637L46.7136 58.3448L48.5015 55.9567L42.4918 47.9299L48.5511 39.837L46.7136 37.3824Z" fill="#E6E6E6"/>
<path d="M58.4348 37.3824L66.3814 47.8637L58.4348 58.3448L56.6468 55.9567L62.6564 47.9299L56.5971 39.837L58.4348 37.3824Z" fill="#E6E6E6"/>
<path d="M46.7136 37.3824L38.7668 47.8637L46.7136 58.3448L48.5015 55.9567L42.4918 47.9299L48.5511 39.837L46.7136 37.3824Z" fill="#00e3c2"/>
<path d="M58.4348 37.3824L66.3814 47.8637L58.4348 58.3448L56.6468 55.9567L62.6564 47.9299L56.5971 39.837L58.4348 37.3824Z" fill="#00e3c2"/>
</g>
<defs>
<clipPath id="clip0">
<rect width="105" height="90" fill="white"/>
</clipPath>
</defs>
</svg>
