<svg width="72" height="84" viewBox="0 0 90 105" fill="none" xmlns="http://www.w3.org/2000/svg">
<path d="M34.7329 51.9286L3.3386 60.2318C3.14572 60.2829 2.94495 60.2944 2.74775 60.2657C2.55054 60.237 2.36077 60.1687 2.18926 60.0647C2.01776 59.9607 1.86788 59.823 1.74818 59.6595C1.62848 59.496 1.54131 59.3099 1.49164 59.1118C1.44197 58.9137 1.43078 58.7075 1.45871 58.505C1.48663 58.3024 1.55312 58.1075 1.65439 57.9314C1.75565 57.7552 1.88971 57.6013 2.04889 57.4783C2.20808 57.3554 2.38928 57.2659 2.58216 57.2149L33.9765 48.9116C34.1693 48.8606 34.3701 48.8491 34.5673 48.8778C34.7645 48.9065 34.9543 48.9748 35.1258 49.0788C35.2973 49.1828 35.4472 49.3205 35.5669 49.484C35.6866 49.6475 35.7738 49.8336 35.8234 50.0317C35.8731 50.2298 35.8843 50.436 35.8564 50.6385C35.8284 50.8411 35.7619 51.036 35.6607 51.2121C35.5594 51.3883 35.4254 51.5422 35.2662 51.6651C35.107 51.7881 34.9258 51.8776 34.7329 51.9286Z" fill="#CCCCCC"/>
<path d="M42.0679 55.4174L4.61509 65.323C4.22555 65.426 3.81213 65.3659 3.46576 65.1559C3.11939 64.9458 2.86844 64.603 2.76813 64.203C2.66783 63.8029 2.72637 63.3783 2.93088 63.0225C3.13539 62.6668 3.46912 62.4091 3.85866 62.306L41.3115 52.4004C41.7009 52.2978 42.114 52.3582 42.4601 52.5683C42.8062 52.7784 43.0569 53.121 43.1571 53.5208C43.2574 53.9207 43.199 54.345 42.9947 54.7007C42.7905 55.0563 42.4572 55.3141 42.0679 55.4174V55.4174Z" fill="#CCCCCC"/>
<path d="M80.751 104.637H9.54629C7.13165 104.635 4.81669 103.648 3.10928 101.895C1.40187 100.141 0.441448 97.7633 0.438721 95.2833V9.39572C0.441448 6.91572 1.40187 4.5381 3.10928 2.78447C4.81669 1.03085 7.13165 0.0444274 9.54629 0.041626H75.7906L89.8586 11.5582V95.2833C89.8558 97.7633 88.8954 100.141 87.188 101.895C85.4806 103.648 83.1656 104.635 80.751 104.637V104.637Z" fill="#E6E6E6"/>
<path d="M9.54625 2.7345C7.82673 2.73649 6.17819 3.43894 4.9623 4.68773C3.74642 5.93653 3.06249 7.62969 3.06055 9.39575V95.2834C3.06248 97.0494 3.74642 98.7426 4.9623 99.9914C6.17819 101.24 7.82673 101.943 9.54625 101.945H80.7509C82.4705 101.943 84.119 101.24 85.3349 99.9914C86.5508 98.7426 87.2347 97.0494 87.2366 95.2834V12.8555L74.8735 2.7345H9.54625Z" fill="white"/>
<path d="M66.9017 27.7082H34.4832C34.081 27.7082 33.6952 27.5441 33.4108 27.2519C33.1263 26.9598 32.9666 26.5636 32.9666 26.1505C32.9666 25.7373 33.1263 25.3411 33.4108 25.049C33.6952 24.7569 34.081 24.5928 34.4832 24.5928H66.9017C67.3039 24.5928 67.6897 24.7569 67.9741 25.049C68.2586 25.3411 68.4183 25.7373 68.4183 26.1505C68.4183 26.5636 68.2586 26.9598 67.9741 27.2519C67.6897 27.5441 67.3039 27.7082 66.9017 27.7082V27.7082Z" fill="#00e3c2"/>
<path d="M73.1579 32.9655H34.4832C34.0814 32.9649 33.6961 32.8006 33.4121 32.5085C33.1281 32.2165 32.9686 31.8206 32.9686 31.4078C32.9686 30.995 33.1281 30.5991 33.4121 30.3071C33.6961 30.015 34.0814 29.8507 34.4832 29.8501H73.1579C73.3573 29.8498 73.5547 29.8899 73.739 29.9681C73.9232 30.0462 74.0906 30.1609 74.2317 30.3056C74.3727 30.4503 74.4846 30.6221 74.561 30.8112C74.6373 31.0003 74.6766 31.2031 74.6766 31.4078C74.6766 31.6125 74.6373 31.8153 74.561 32.0044C74.4846 32.1935 74.3727 32.3653 74.2317 32.51C74.0906 32.6547 73.9232 32.7694 73.739 32.8475C73.5547 32.9257 73.3573 32.9658 73.1579 32.9655V32.9655Z" fill="#00e3c2"/>
<path d="M66.9019 48.1522H34.4844C34.0822 48.1522 33.6965 48.3163 33.4121 48.6084C33.1277 48.9005 32.9679 49.2967 32.9679 49.7098C32.9679 50.1229 33.1277 50.5191 33.4121 50.8112C33.6965 51.1033 34.0822 51.2674 34.4844 51.2674H66.9019C67.3041 51.2674 67.6899 51.1033 67.9743 50.8112C68.2587 50.5191 68.4185 50.1229 68.4185 49.7098C68.4185 49.2967 68.2587 48.9005 67.9743 48.6084C67.6899 48.3163 67.3041 48.1522 66.9019 48.1522V48.1522Z" fill="#CCCCCC"/>
<path d="M73.1585 53.4104H34.4844C34.0822 53.4104 33.6965 53.5745 33.4121 53.8666C33.1277 54.1587 32.9679 54.5549 32.9679 54.968C32.9679 55.3811 33.1277 55.7773 33.4121 56.0694C33.6965 56.3615 34.0822 56.5256 34.4844 56.5256H73.1585C73.5607 56.5256 73.9465 56.3615 74.2309 56.0694C74.5153 55.7773 74.6751 55.3811 74.6751 54.968C74.6751 54.5549 74.5153 54.1587 74.2309 53.8666C73.9465 53.5745 73.5607 53.4104 73.1585 53.4104Z" fill="#CCCCCC"/>
<path d="M66.9017 74.8288H34.4832C34.081 74.8288 33.6952 74.6647 33.4108 74.3725C33.1263 74.0804 32.9666 73.6842 32.9666 73.2711C32.9666 72.858 33.1263 72.4617 33.4108 72.1696C33.6952 71.8775 34.081 71.7134 34.4832 71.7134H66.9017C67.3039 71.7134 67.6897 71.8775 67.9741 72.1696C68.2586 72.4617 68.4183 72.858 68.4183 73.2711C68.4183 73.6842 68.2586 74.0804 67.9741 74.3725C67.6897 74.6647 67.3039 74.8288 66.9017 74.8288V74.8288Z" fill="#CCCCCC"/>
<path d="M73.1579 80.0861H34.4832C34.0814 80.0856 33.6961 79.9212 33.4121 79.6291C33.1281 79.3371 32.9686 78.9412 32.9686 78.5284C32.9686 78.1156 33.1281 77.7198 33.4121 77.4277C33.6961 77.1356 34.0814 76.9713 34.4832 76.9707H73.1579C73.3573 76.9704 73.5547 77.0105 73.739 77.0887C73.9232 77.1668 74.0906 77.2815 74.2317 77.4262C74.3727 77.5709 74.4846 77.7427 74.561 77.9318C74.6373 78.1209 74.6766 78.3237 74.6766 78.5284C74.6766 78.7332 74.6373 78.9359 74.561 79.125C74.4846 79.3141 74.3727 79.486 74.2317 79.6306C74.0906 79.7753 73.9232 79.89 73.739 79.9682C73.5547 80.0463 73.3573 80.0864 73.1579 80.0861Z" fill="#CCCCCC"/>
<path d="M20.9833 34.2848C23.9439 34.2848 26.3439 31.8199 26.3439 28.7792C26.3439 25.7385 23.9439 23.2736 20.9833 23.2736C18.0228 23.2736 15.6228 25.7385 15.6228 28.7792C15.6228 31.8199 18.0228 34.2848 20.9833 34.2848Z" fill="#00e3c2"/>
<path d="M20.4522 30.8794C20.3316 30.8797 20.2142 30.8396 20.1177 30.7653L20.1117 30.7607L18.8519 29.7709C18.7934 29.725 18.7442 29.6677 18.7073 29.6023C18.6704 29.5369 18.6463 29.4647 18.6366 29.3897C18.6269 29.3148 18.6317 29.2386 18.6506 29.1655C18.6696 29.0925 18.7025 29.024 18.7473 28.9639C18.792 28.9039 18.8479 28.8536 18.9117 28.8158C18.9755 28.778 19.0459 28.7535 19.1189 28.7437C19.1919 28.7338 19.266 28.7389 19.3371 28.7586C19.4082 28.7782 19.4748 28.8121 19.5331 28.8582L20.3491 29.5009L22.2774 26.9172C22.3221 26.8573 22.3779 26.807 22.4415 26.7693C22.5051 26.7315 22.5754 26.707 22.6482 26.6971C22.7211 26.6872 22.7951 26.6922 22.8661 26.7117C22.9371 26.7312 23.0037 26.7648 23.062 26.8108L23.0621 26.8109L23.0502 26.828L23.0625 26.8109C23.1801 26.9038 23.2571 27.0408 23.2765 27.1919C23.2959 27.343 23.2562 27.4958 23.166 27.6169L20.8979 30.6545C20.8455 30.7245 20.778 30.7812 20.7008 30.82C20.6236 30.8589 20.5387 30.879 20.4526 30.8788L20.4522 30.8794Z" fill="white"/>
<path d="M26.8948 52.3389C26.895 53.062 26.7566 53.7781 26.4874 54.4463C26.2182 55.1144 25.8234 55.7215 25.3257 56.233C24.828 56.7444 24.2371 57.1502 23.5867 57.427C22.9363 57.7039 22.2392 57.8464 21.5351 57.8465C21.489 57.8475 21.443 57.8456 21.3971 57.8408C20.3431 57.8131 19.3205 57.4667 18.4572 56.845C17.5939 56.2232 16.9283 55.3539 16.5437 54.3456C16.1591 53.3373 16.0725 52.2349 16.2949 51.1763C16.5172 50.1178 17.0386 49.1501 17.7937 48.3944C18.5489 47.6386 19.5043 47.1284 20.5404 46.9276C21.5764 46.7267 22.6472 46.8441 23.6186 47.2652C24.59 47.6862 25.4189 48.3921 26.0017 49.2946C26.5844 50.1971 26.8951 51.256 26.8948 52.3389V52.3389Z" fill="#CCCCCC"/>
<path d="M20.9833 81.4054C23.9439 81.4054 26.3439 78.9405 26.3439 75.8998C26.3439 72.8591 23.9439 70.3942 20.9833 70.3942C18.0228 70.3942 15.6228 72.8591 15.6228 75.8998C15.6228 78.9405 18.0228 81.4054 20.9833 81.4054Z" fill="#CCCCCC"/>
<path d="M89.5847 11.9287H78.5648C77.7603 11.9287 76.9888 11.6005 76.4199 11.0162C75.8511 10.432 75.5315 9.63957 75.5315 8.81331V0.453868C75.5315 0.417269 75.5415 0.381413 75.5605 0.350409C75.5794 0.319404 75.6065 0.294508 75.6385 0.278575C75.6706 0.262643 75.7064 0.256318 75.7419 0.260327C75.7773 0.264337 75.8109 0.278518 75.8388 0.301244L89.7024 11.5814C89.7333 11.6065 89.7558 11.6408 89.7667 11.6796C89.7777 11.7185 89.7767 11.7598 89.7637 11.798C89.7508 11.8362 89.7266 11.8693 89.6945 11.8927C89.6624 11.9161 89.6241 11.9287 89.5847 11.9287Z" fill="#CCCCCC"/>
<path d="M26.8947 52.3389C26.895 53.062 26.7566 53.778 26.4874 54.4462C26.2181 55.1143 25.8234 55.7215 25.3257 56.2329C24.828 56.7443 24.2371 57.1501 23.5867 57.4269C22.9363 57.7038 22.2391 57.8463 21.5351 57.8464C21.489 57.8474 21.4429 57.8455 21.3971 57.8408C20.7046 56.0667 20.4376 54.1476 20.6187 52.2453C20.7998 50.343 21.4236 48.5134 22.4376 46.9106C23.6845 47.1302 24.8158 47.7954 25.6314 48.7887C26.447 49.782 26.8945 51.0395 26.8947 52.3389V52.3389Z" fill="#00e3c2"/>
<path d="M32.9666 49.7112C32.9673 49.298 33.1274 48.9019 33.4119 48.6097C33.6964 48.3175 34.0821 48.153 34.4845 48.1522H42.5626C43.0344 49.1379 43.3698 50.1864 43.5589 51.2674H34.4845C34.0824 51.2673 33.6968 51.1034 33.4122 50.8117C33.1277 50.5199 32.9674 50.1242 32.9666 49.7112V49.7112Z" fill="#00e3c2"/>
<path d="M43.7466 53.4104C43.7472 54.4625 43.6117 55.5101 43.3437 56.5256H34.4844C34.0822 56.5256 33.6965 56.3615 33.4121 56.0694C33.1277 55.7773 32.9679 55.3811 32.9679 54.968C32.9679 54.5549 33.1277 54.1587 33.4121 53.8666C33.6965 53.5745 34.0822 53.4104 34.4844 53.4104H43.7466Z" fill="#00e3c2"/>
<path d="M63.7341 72.6223C63.5054 73.0074 63.1371 73.2834 62.7103 73.3896C62.2834 73.4958 61.833 73.4235 61.4581 73.1887L42.1376 61.0849C41.952 60.9686 41.7904 60.8159 41.6623 60.6355C41.5341 60.4551 41.4418 60.2505 41.3905 60.0334C41.3393 59.8164 41.3303 59.5911 41.3638 59.3704C41.3974 59.1497 41.473 58.938 41.5862 58.7474C41.6995 58.5567 41.8482 58.3908 42.0238 58.2591C42.1995 58.1275 42.3987 58.0327 42.61 57.9801C42.8214 57.9275 43.0407 57.9182 43.2556 57.9526C43.4704 57.9871 43.6766 58.0647 43.8622 58.181L63.1827 70.2848C63.5576 70.5197 63.8263 70.8979 63.9297 71.3363C64.0331 71.7747 63.9627 72.2373 63.7341 72.6223V72.6223Z" fill="#3F3D56"/>
<path d="M44.4136 60.5187C43.0492 62.8161 41.0522 64.6463 38.6751 65.778C36.2979 66.9096 33.6474 67.2919 31.0588 66.8764C28.4701 66.4609 26.0595 65.2664 24.1319 63.4438C22.2042 61.6213 20.846 59.2525 20.2291 56.6372C19.6122 54.0218 19.7643 51.2773 20.666 48.7507C21.5678 46.2241 23.1788 44.0289 25.2953 42.4427C27.4118 40.8565 29.9388 39.9505 32.5566 39.8393C35.1745 39.7281 37.7657 40.4166 40.0025 41.8179C42.9988 43.6999 45.146 46.7257 45.973 50.2315C46.8 53.7374 46.2392 57.437 44.4136 60.5187ZM24.6219 48.1198C23.5986 49.8428 23.0958 51.8388 23.177 53.8553C23.2582 55.8718 23.9198 57.8183 25.0782 59.4487C26.2365 61.079 27.8395 62.32 29.6845 63.0146C31.5295 63.7093 33.5336 63.8264 35.4434 63.3512C37.3533 62.876 39.083 61.8298 40.4139 60.3449C41.7448 58.86 42.6171 57.0032 42.9205 55.0091C43.2239 53.015 42.9447 50.9734 42.1184 49.1423C41.292 47.3111 39.9555 45.7728 38.2779 44.7219C36.0275 43.3156 33.3259 42.8837 30.7658 43.5207C28.2057 44.1577 25.9962 45.8117 24.6219 48.1198V48.1198Z" fill="#3F3D56"/>
</svg>
