<svg width="60" height="60" viewBox="0 0 60 60" fill="none" xmlns="http://www.w3.org/2000/svg">
<circle cx="30" cy="30" r="30" fill="#00C9AB"/>
<path d="M38.1419 33.5442C37.7 33.3225 35.5261 32.2541 35.1214 32.1053C34.7152 31.958 34.4206 31.8851 34.1245 32.3285C33.8313 32.7704 32.9832 33.7659 32.7258 34.0605C32.4684 34.3566 32.2095 34.3923 31.7676 34.1721C31.3257 33.9489 29.9003 33.4832 28.2115 31.9774C26.8976 30.8049 26.0093 29.3571 25.7519 28.9137C25.4945 28.4718 25.7251 28.2323 25.9454 28.0121C26.1447 27.8142 26.3888 27.4957 26.609 27.2383C26.8307 26.9794 26.9036 26.7949 27.0524 26.4988C27.1997 26.2042 27.1268 25.9468 27.0152 25.7251C26.9036 25.5034 26.0198 23.3266 25.6522 22.4413C25.2922 21.5798 24.9276 21.6973 24.6568 21.6824C24.3743 21.6712 24.0915 21.6662 23.8087 21.6675C23.5141 21.6675 23.035 21.7777 22.6303 22.2211C22.2255 22.663 21.0828 23.7328 21.0828 25.9096C21.0828 28.085 22.6675 30.1874 22.8877 30.4835C23.1094 30.7781 26.0064 35.2449 30.4419 37.1598C31.4968 37.6151 32.3196 37.8874 32.9624 38.0898C34.0218 38.4275 34.986 38.3799 35.7463 38.2653C36.5959 38.1389 38.3621 37.1955 38.7311 36.1629C39.1001 35.1303 39.1001 34.245 38.9885 34.0605C38.8784 33.876 38.5838 33.7659 38.1404 33.5442H38.1419ZM30.0743 44.5593H30.0684C27.4344 44.5595 24.8489 43.8513 22.5826 42.5089L22.0455 42.1905L16.4792 43.6516L17.9641 38.2237L17.6145 37.6672C16.1421 35.3226 15.3632 32.6093 15.3677 29.8407C15.3692 21.7315 21.9681 15.1341 30.0803 15.1341C34.0084 15.1341 37.7014 16.6666 40.4779 19.4461C41.8478 20.8099 42.9336 22.4319 43.6725 24.2182C44.4114 26.0045 44.7886 27.9196 44.7825 29.8526C44.778 37.9618 38.1805 44.5593 30.0743 44.5593V44.5593ZM42.5922 17.3347C40.9528 15.6845 39.0022 14.376 36.8535 13.4852C34.7047 12.5943 32.4005 12.1387 30.0743 12.1448C20.321 12.1448 12.3829 20.0829 12.3785 29.8392C12.3785 32.9579 13.1924 36.0022 14.7413 38.6849L12.2297 47.855L21.611 45.394C24.2054 46.8074 27.1125 47.5481 30.0669 47.5485H30.0743C39.8262 47.5485 47.7658 39.6104 47.7702 29.8526C47.7774 27.5274 47.3235 25.2238 46.4347 23.0752C45.5459 20.9265 44.2399 18.9754 42.5922 17.3347V17.3347Z" fill="white"/>
</svg>
